<?xml version="1.0" encoding="utf-8"?>
<!-- Generator: Adobe Illustrator 23.0.2, SVG Export Plug-In . SVG Version: 6.00 Build 0)  -->
<svg version="1.1" id="Capa_1" xmlns="http://www.w3.org/2000/svg" xmlns:xlink="http://www.w3.org/1999/xlink" x="0px" y="0px"
	 viewBox="0 0 115 107" style="enable-background:new 0 0 115 107;" xml:space="preserve">
<style type="text/css">
	.st0{fill:#1D1D1B;}
	.st1{fill:#00ABC8;}
</style>
<path class="st1" d="M48.3,85.4c-6,0-10.8,4.8-10.8,10.8S42.4,107,48.4,107s10.8-4.8,10.8-10.8C59.1,90.2,54.3,85.4,48.3,85.4z
	 M52,96.2c0,2-1.6,3.6-3.6,3.6s-3.6-1.6-3.6-3.6c0-2,1.6-3.6,3.6-3.6c0,0,0,0,0,0C50.4,92.6,52,94.2,52,96.2z"/>
<path class="st1" d="M83.3,85.4c-6,0-10.8,4.8-10.8,10.8S77.4,107,83.3,107s10.8-4.8,10.8-10.8l0,0C94.1,90.2,89.3,85.4,83.3,85.4z
	 M86.9,96.2c0,2-1.6,3.6-3.6,3.6c-2,0-3.6-1.6-3.6-3.6c0-2,1.6-3.6,3.6-3.6c0,0,0,0,0,0C85.3,92.6,86.9,94.2,86.9,96.2
	C86.9,96.2,86.9,96.2,86.9,96.2z"/>
<path class="st1" d="M113.6,20.8c-1.2-1.5-3-2.4-4.9-2.4H22.6L21,10.6c-0.4-2.1-1.8-3.8-3.8-4.6L5,0.7c-0.9-0.4-1.9-0.4-2.8,0
	c-0.9,0.3-1.6,1-2,1.9c-0.4,0.9-0.4,1.9,0,2.8c0.3,0.9,1,1.6,1.9,2L14,12.5l13.4,65c0.6,3,3.2,5.1,6.2,5.1h66.7
	c2-0.1,3.5-1.8,3.4-3.8c-0.1-1.8-1.6-3.3-3.4-3.4h-66L33,69h67.9c3,0,5.6-2.1,6.2-5.1l7.8-37.8C115.3,24.2,114.8,22.3,113.6,20.8z
	 M107.6,25.6l-7.5,36.2H31.5L24,25.6H107.6z"/>
</svg>
