<?xml version="1.0" encoding="utf-8"?>
<!-- Generator: Adobe Illustrator 23.0.2, SVG Export Plug-In . SVG Version: 6.00 Build 0)  -->
<svg version="1.1" id="Capa_1" xmlns="http://www.w3.org/2000/svg" xmlns:xlink="http://www.w3.org/1999/xlink" x="0px" y="0px"
	 viewBox="0 0 679.9 680.1" style="enable-background:new 0 0 679.9 680.1;" xml:space="preserve">
<style type="text/css">
	.st0{clip-path:url(#SVGID_2_);fill:#FFFFFF;}
	.st1{clip-path:url(#SVGID_4_);}
	.st2{clip-path:url(#SVGID_6_);fill:#00ABC8;}
	.st3{clip-path:url(#SVGID_8_);fill:#FFFFFF;}
	.st4{clip-path:url(#SVGID_10_);}
	.st5{clip-path:url(#SVGID_12_);fill:#00ABC8;}
	.st6{clip-path:url(#SVGID_14_);fill:#FFFFFF;}
	.st7{clip-path:url(#SVGID_16_);}
	.st8{clip-path:url(#SVGID_18_);fill:#00ABC8;}
	.st9{clip-path:url(#SVGID_20_);fill:#FFFFFF;}
	.st10{clip-path:url(#SVGID_22_);}
	.st11{clip-path:url(#SVGID_24_);fill:#00ABC8;}
</style>
<g>
	<defs>
		<rect id="SVGID_13_" width="679.9" height="680.1"/>
	</defs>
	<clipPath id="SVGID_2_">
		<use xlink:href="#SVGID_13_"  style="overflow:visible;"/>
	</clipPath>
	<path class="st0" d="M561.5,118.4C504.9,61.8,426.6,26.7,340,26.7s-164.9,35-221.5,91.7c-56.9,56.6-91.9,135.1-91.9,221.7
		c0,86.4,35,164.9,91.9,221.5c56.6,56.7,134.9,91.9,221.5,91.9s164.9-35.2,221.5-91.9c56.9-56.6,91.9-135.2,91.9-221.5
		C653.4,253.6,618.4,175.1,561.5,118.4 M340,0c93.9,0,178.8,38.2,240.4,99.6c61.5,61.6,99.6,146.7,99.6,240.6
		c0,93.7-38,178.8-99.6,240.4c-61.6,61.4-146.5,99.6-240.4,99.6s-178.8-38.2-240.4-99.6C38,519,0,433.9,0,340.2
		c0-93.9,38-179,99.6-240.6C161.2,38.2,246,0,340,0"/>
	<path class="st0" d="M513.5,234.2c-12.6,5.5-26.4,9.2-40.9,11.1c14.9-8.9,26.2-22.4,31.5-39c-13.8,8.1-29.2,14-45.4,17.1
		c-12.8-13.7-31.5-22.2-52.2-22.2c-39.2,0-71.2,31.5-71.2,70.1c0,5.6,1,10.9,2.1,16c-59.3-2.8-111.8-30.7-146.8-73.2
		c-6,10.6-9.8,22.4-9.8,35.2c0,24.5,12.8,45.9,31.6,58.4c-11.7-0.2-22.6-3.4-32.2-8.7v0.9c0,9,1.7,17.3,4.9,25.2
		c8.7,22,28.4,38.6,52.3,43.3c-6.2,1.7-12.2,2.6-18.8,2.6c-4.5,0-9-0.6-13.4-1.5c9.2,27.9,35.4,48.2,66.5,48.9
		c-24.4,18.8-55,29.9-88.3,29.9c-5.8,0-11.3-0.4-17.1-1c31.6,19.8,69.1,31.5,109.1,31.5c111.3,0,180-77,197.9-157
		c3.2-14.3,4.7-28.4,4.7-42.3v-9C491.9,260.6,504.1,248.1,513.5,234.2"/>
</g>
</svg>
