<?xml version="1.0" encoding="utf-8"?>
<!-- Generator: Adobe Illustrator 23.0.2, SVG Export Plug-In . SVG Version: 6.00 Build 0)  -->
<svg version="1.1" id="Capa_1" xmlns="http://www.w3.org/2000/svg" xmlns:xlink="http://www.w3.org/1999/xlink" x="0px" y="0px"
	 viewBox="0 0 700 700" style="enable-background:new 0 0 700 700;" xml:space="preserve">
<style type="text/css">
	.st0{clip-path:url(#SVGID_2_);}
	.st1{clip-path:url(#SVGID_4_);fill:#00ABC8;}
	.st2{clip-path:url(#SVGID_6_);}
	.st3{clip-path:url(#SVGID_8_);fill:#00ABC8;}
	.st4{clip-path:url(#SVGID_10_);}
	.st5{clip-path:url(#SVGID_12_);fill:#00ABC8;}
	.st6{clip-path:url(#SVGID_14_);}
	.st7{clip-path:url(#SVGID_16_);fill:#00ABC8;}
</style>
<g>
	<defs>
		<rect id="SVGID_15_" x="10.2" y="10" width="679.8" height="679.8"/>
	</defs>
	<clipPath id="SVGID_2_">
		<use xlink:href="#SVGID_15_"  style="overflow:visible;"/>
	</clipPath>
	<path style="clip-path:url(#SVGID_2_);fill:#00ABC8;" d="M571.8,128.4c-56.9-56.6-135.2-91.8-221.7-91.8s-164.9,35.2-221.5,91.8
		c-56.7,56.7-91.8,135-91.8,221.5c0,86.6,35.2,164.9,91.8,221.7c56.7,56.7,135,91.6,221.5,91.6s164.9-35,221.7-91.6
		c56.6-56.9,91.6-135.1,91.6-221.7C663.4,263.3,628.4,185,571.8,128.4 M350.1,10c93.9,0,178.8,38,240.3,99.6S690,256,690,349.9
		c0,93.9-38,178.8-99.5,240.3S444,689.8,350.1,689.8s-178.8-38-240.3-99.5c-61.5-61.5-99.5-146.4-99.5-240.3
		c0-93.9,38-178.8,99.5-240.3C171.3,48,256.2,10,350.1,10"/>
	<path style="clip-path:url(#SVGID_2_);fill:#00ABC8;" d="M288.2,440.1v-64.6h74.7c33.1,0,47.8,12.2,47.8,31.9v0.9
		c0,21.8-17.2,31.9-45.7,31.9H288.2z M288.2,321.8v-62.1H352c27.3,0,42.4,10.9,42.4,30.2v0.8c0,21.8-18.1,31.1-46.6,31.1H288.2z
		 M225.3,496.7H365c66.3,0,109.9-26.9,109.9-80.6v-0.8c0-39.5-21-59.2-55-72.2c21-11.7,38.6-30.2,38.6-63.3V279
		c0-20.1-6.7-36.5-20.2-49.9c-16.8-16.8-43.2-26-76.7-26H225.3V496.7z"/>
</g>
</svg>
