<?xml version="1.0" encoding="utf-8"?>
<!-- Generator: Adobe Illustrator 23.0.2, SVG Export Plug-In . SVG Version: 6.00 Build 0)  -->
<svg version="1.1" id="Capa_1" xmlns="http://www.w3.org/2000/svg" xmlns:xlink="http://www.w3.org/1999/xlink" x="0px" y="0px"
	 viewBox="0 0 700 700" style="enable-background:new 0 0 700 700;" xml:space="preserve">
<style type="text/css">
	.st0{clip-path:url(#SVGID_2_);}
	.st1{clip-path:url(#SVGID_4_);fill:#00ABC8;}
	.st2{clip-path:url(#SVGID_6_);}
	.st3{clip-path:url(#SVGID_8_);fill:#00ABC8;}
	.st4{clip-path:url(#SVGID_10_);}
	.st5{clip-path:url(#SVGID_12_);fill:#00ABC8;}
	.st6{clip-path:url(#SVGID_14_);}
	.st7{clip-path:url(#SVGID_16_);fill:#00ABC8;}
</style>
<g>
	<defs>
		<rect id="SVGID_1_" x="10" y="9.8" width="680.2" height="680.2"/>
	</defs>
	<clipPath id="SVGID_2_">
		<use xlink:href="#SVGID_1_"  style="overflow:visible;"/>
	</clipPath>
	<path class="st0" d="M571.9,128.3c-56.9-56.7-135.2-91.9-221.8-91.9c-86.4,0-165,35.2-221.6,91.9s-91.9,135-91.9,221.6
		s35.2,165,91.9,221.8c56.7,56.7,135.2,91.7,221.6,91.7c86.6,0,165-35,221.8-91.7c56.7-56.9,91.7-135.2,91.7-221.8
		S628.6,184.9,571.9,128.3 M350.1,9.8c94,0,179.1,38,240.5,99.6c61.6,61.6,99.6,146.5,99.6,240.5s-38,178.9-99.6,240.5
		C529.2,652,444.1,690,350.1,690c-93.8,0-178.9-38-240.5-99.6C48,528.8,10,443.9,10,349.9S48,171,109.6,109.5
		C171.2,47.8,256.3,9.8,350.1,9.8"/>
	<path class="st0" d="M352.9,283.6c-37.1,0-67,29.9-67,67s29.9,67,67,67c37.1,0,67-29.9,67-67S390,283.6,352.9,283.6 M352.9,263
		c48.2,0,87.5,39.3,87.5,87.5s-39.3,87.6-87.5,87.6s-87.6-39.4-87.6-87.6S304.7,263,352.9,263 M455.9,226.9
		c11.4,0,20.6,9.2,20.6,20.6c0,11.4-9.2,20.6-20.6,20.6c-11.4,0-20.6-9.2-20.6-20.6C435.3,236.1,444.6,226.9,455.9,226.9
		 M260.2,175.4c-45.6,0-82.4,36.8-82.4,82.4v185.4c0,45.6,36.8,82.4,82.4,82.4h185.4c45.6,0,82.4-36.8,82.4-82.4V257.8
		c0-45.6-36.8-82.4-82.4-82.4H260.2z"/>
</g>
</svg>
