<?xml version="1.0" encoding="utf-8"?>
<!-- Generator: Adobe Illustrator 23.0.2, SVG Export Plug-In . SVG Version: 6.00 Build 0)  -->
<svg version="1.1" id="Capa_1" xmlns="http://www.w3.org/2000/svg" xmlns:xlink="http://www.w3.org/1999/xlink" x="0px" y="0px"
	 viewBox="0 0 700 700" style="enable-background:new 0 0 700 700;" xml:space="preserve">
<style type="text/css">
	.st0{clip-path:url(#SVGID_2_);}
	.st1{clip-path:url(#SVGID_4_);fill:#00ABC8;}
	.st2{clip-path:url(#SVGID_6_);}
	.st3{clip-path:url(#SVGID_8_);fill:#00ABC8;}
	.st4{clip-path:url(#SVGID_10_);}
	.st5{clip-path:url(#SVGID_12_);fill:#00ABC8;}
	.st6{clip-path:url(#SVGID_14_);}
	.st7{clip-path:url(#SVGID_16_);fill:#00ABC8;}
</style>
<g>
	<defs>
		<rect id="SVGID_5_" x="10.1" y="10" width="679.9" height="679.9"/>
	</defs>
	<clipPath id="SVGID_2_">
		<use xlink:href="#SVGID_5_"  style="overflow:visible;"/>
	</clipPath>
	<path class="st0" d="M571.8,128.4c-56.9-56.7-135.2-91.8-221.7-91.8s-164.9,35.2-221.6,91.8c-56.6,56.7-91.8,135-91.8,221.6
		s35.2,164.9,91.8,221.7c56.7,56.7,135,91.7,221.6,91.7s164.9-35,221.7-91.7c56.6-56.8,91.6-135.1,91.6-221.7
		S628.4,185.1,571.8,128.4 M350.1,10c93.9,0,178.8,38,240.4,99.6C651.9,171.2,690,256,690,349.9c0,93.9-38,178.8-99.6,240.4
		c-61.6,61.5-146.4,99.6-240.4,99.6s-178.8-38-240.4-99.6c-61.5-61.6-99.6-146.5-99.6-240.4c0-93.9,38-178.8,99.6-240.4
		C171.3,48,256.1,10,350.1,10"/>
	<path class="st0" d="M376,280.5v-27.9c0-13.4,8.9-16.5,15.2-16.5h39v-59.5h-53.6c-59.7,0-73,44.1-73,72.6v31.3H269v42v27.5h35
		v173.6h69.5V349.9h51.4l2.3-27.3l4.1-42.2H376z"/>
</g>
</svg>
