<?xml version="1.0" encoding="utf-8"?>
<!-- Generator: Adobe Illustrator 23.0.2, SVG Export Plug-In . SVG Version: 6.00 Build 0)  -->
<svg version="1.1" id="Capa_1" xmlns="http://www.w3.org/2000/svg" xmlns:xlink="http://www.w3.org/1999/xlink" x="0px" y="0px"
	 viewBox="0 0 700 700" style="enable-background:new 0 0 700 700;" xml:space="preserve">
<style type="text/css">
	.st0{clip-path:url(#SVGID_2_);}
	.st1{clip-path:url(#SVGID_4_);fill:#00ABC8;}
	.st2{clip-path:url(#SVGID_6_);}
	.st3{clip-path:url(#SVGID_8_);fill:#00ABC8;}
	.st4{clip-path:url(#SVGID_10_);}
	.st5{clip-path:url(#SVGID_12_);fill:#00ABC8;}
	.st6{clip-path:url(#SVGID_14_);}
	.st7{clip-path:url(#SVGID_16_);fill:#00ABC8;}
</style>
<g>
	<defs>
		<rect id="SVGID_9_" x="10.1" y="9.9" width="679.9" height="680.1"/>
	</defs>
	<clipPath id="SVGID_2_">
		<use xlink:href="#SVGID_9_"  style="overflow:visible;"/>
	</clipPath>
	<path class="st0" d="M571.6,128.3C515,71.6,436.7,36.6,350.1,36.6s-164.9,35-221.5,91.7C71.6,184.9,36.7,263.4,36.7,350
		c0,86.4,35,164.9,91.9,221.5c56.6,56.7,134.9,91.9,221.5,91.9s164.9-35.2,221.5-91.9c56.9-56.6,91.9-135.2,91.9-221.5
		C663.5,263.4,628.5,184.9,571.6,128.3 M350.1,9.9c93.9,0,178.8,38.2,240.4,99.6C652,171,690,256.1,690,350
		c0,93.7-38,178.8-99.6,240.4C528.9,651.8,444,690,350.1,690s-178.8-38.2-240.4-99.6C48.1,528.9,10.1,443.8,10.1,350
		c0-93.9,38-179,99.6-240.6C171.2,48.1,256.1,9.9,350.1,9.9"/>
	<path class="st0" d="M523.6,244.1c-12.6,5.5-26.4,9.2-40.9,11.1c14.9-8.9,26.2-22.4,31.5-39c-13.8,8.1-29.2,14-45.4,17.1
		c-12.8-13.7-31.5-22.2-52.2-22.2c-39.2,0-71.2,31.5-71.2,70.1c0,5.6,1,10.9,2.1,16c-59.3-2.8-111.8-30.7-146.8-73.2
		c-6,10.6-9.8,22.4-9.8,35.2c0,24.5,12.8,45.9,31.6,58.4c-11.7-0.2-22.6-3.4-32.2-8.7v0.9c0,9,1.7,17.3,4.9,25.2
		c8.7,22,28.4,38.6,52.3,43.3c-6.2,1.7-12.2,2.6-18.8,2.6c-4.5,0-9-0.6-13.4-1.5c9.2,27.9,35.4,48.2,66.5,48.9
		c-24.4,18.8-55,29.9-88.3,29.9c-5.8,0-11.3-0.4-17.1-1c31.6,19.8,69.1,31.5,109.1,31.5c111.3,0,180-77,197.9-157
		c3.2-14.3,4.7-28.4,4.7-42.3v-9C502,270.4,514.2,258,523.6,244.1"/>
</g>
</svg>
