<?xml version="1.0" encoding="utf-8"?>
<!-- Generator: Adobe Illustrator 23.0.2, SVG Export Plug-In . SVG Version: 6.00 Build 0)  -->
<svg version="1.1" id="Capa_1" xmlns="http://www.w3.org/2000/svg" xmlns:xlink="http://www.w3.org/1999/xlink" x="0px" y="0px"
	 viewBox="0 0 178.2 222.5" style="enable-background:new 0 0 178.2 222.5;" xml:space="preserve">
<style type="text/css">
	.st0{fill:#EA0029;stroke:#EA0029;stroke-width:0.1884;stroke-miterlimit:10;}
	.st1{fill:#00ABC8;}
</style>
<g>
	<g>
		<path class="st0" d="M5.3,206.8h1.5l2.8,7.5l0,0l2.9-7.5h1.4l-3.8,9.2H8.9L5.3,206.8z"/>
		<path class="st0" d="M26.6,206.8h1.3v9.2h-1.3V206.8z"/>
		<path class="st0" d="M41.6,206.8h3.3c0.7,0,1.3,0.1,1.8,0.2s0.9,0.3,1.3,0.6c0.4,0.2,0.7,0.5,0.9,0.9c0.2,0.3,0.4,0.6,0.6,1
			c0.1,0.3,0.2,0.7,0.3,1s0.1,0.6,0.1,0.9c0,0.6-0.1,1.2-0.3,1.7s-0.6,1-1,1.5c-0.4,0.4-1,0.8-1.6,1c-0.7,0.3-1.4,0.4-2.3,0.4h-3.1
			V206.8z M42.9,214.8h1.6c0.5,0,1.1-0.1,1.6-0.2s0.9-0.4,1.3-0.6c0.4-0.3,0.7-0.6,0.9-1.1c0.2-0.4,0.3-0.9,0.3-1.5
			c0-0.3,0-0.6-0.1-1s-0.3-0.8-0.6-1.1c-0.3-0.4-0.7-0.7-1.1-0.9c-0.5-0.2-1.1-0.4-1.9-0.4H43v6.8H42.9z"/>
		<path class="st0" d="M66.3,206.8h1.2l4.1,9.2h-1.5l-1-2.3h-4.5l-0.9,2.3h-1.5L66.3,206.8z M68.6,212.6l-1.8-4.2l0,0l-1.8,4.2H68.6
			z"/>
		<path class="st0" d="M99.8,214.1c0.2,0.3,0.5,0.6,0.9,0.7c0.4,0.2,0.7,0.2,1.1,0.2c0.2,0,0.4,0,0.7-0.1c0.2-0.1,0.4-0.2,0.6-0.3
			c0.2-0.1,0.3-0.3,0.5-0.5c0.1-0.2,0.2-0.4,0.2-0.7c0-0.4-0.1-0.6-0.3-0.8c-0.2-0.2-0.5-0.3-0.9-0.5c-0.3-0.1-0.7-0.3-1.1-0.4
			s-0.8-0.3-1.1-0.5c-0.3-0.2-0.6-0.5-0.9-0.8c-0.2-0.4-0.3-0.8-0.3-1.4c0-0.3,0.1-0.6,0.2-0.9s0.3-0.6,0.6-0.8
			c0.3-0.2,0.6-0.5,1-0.6c0.4-0.2,0.9-0.3,1.5-0.3c0.5,0,1,0.1,1.5,0.2s0.9,0.4,1.3,0.8l-1.1,0.9c-0.2-0.2-0.4-0.4-0.7-0.6
			c-0.3-0.1-0.6-0.2-1-0.2s-0.7,0-0.9,0.1c-0.2,0.1-0.4,0.2-0.6,0.3c-0.1,0.1-0.2,0.3-0.3,0.5c-0.1,0.2-0.1,0.3-0.1,0.5
			c0,0.4,0.1,0.7,0.3,0.9c0.2,0.2,0.5,0.4,0.9,0.5c0.3,0.1,0.7,0.2,1.1,0.3c0.4,0.1,0.8,0.2,1.1,0.4c0.3,0.2,0.6,0.4,0.9,0.8
			c0.2,0.3,0.4,0.7,0.4,1.3c0,0.4-0.1,0.8-0.3,1.2c-0.2,0.4-0.4,0.7-0.7,0.9c-0.3,0.2-0.7,0.4-1.1,0.6c-0.4,0.1-0.8,0.2-1.3,0.2
			c-0.6,0-1.2-0.1-1.7-0.3c-0.5-0.2-1-0.5-1.3-1L99.8,214.1z"/>
		<path class="st0" d="M121.5,206.8h1.2l4.1,9.2h-1.5l-1-2.3h-4.5l-0.9,2.3h-1.5L121.5,206.8z M123.8,212.6l-1.8-4.2l0,0l-1.8,4.2
			H123.8z"/>
		<path class="st0" d="M139.4,206.8h1.7l5.3,7.5l0,0v-7.5h1.3v9.2h-1.6l-5.3-7.5l0,0v7.5h-1.3v-9.2H139.4z"/>
		<path class="st0" d="M164.6,206.8h1.2l4.1,9.2h-1.5l-1-2.3h-4.5L162,216h-1.5L164.6,206.8z M167,212.6l-1.8-4.2l0,0l-1.8,4.2H167z
			"/>
	</g>
</g>
<g>
	<g>
		<path class="st1" d="M97.9,127.8c0.1-8.8,0.2-15-4.1-24.5c-4.5-10.1-11.8-14-22.6-25.2c-0.5-0.5-1-1.1-1.5-1.6l-0.1-0.1
			c-0.1-0.1-0.2-0.2-0.3-0.3c-0.2-0.2-0.4-0.4-0.6-0.6c-2.1-2.4-4.4-5.2-6.7-8.4c-2.6-3.4-4.8-6.3-6.8-8.7c-0.1-0.2-0.3-0.4-0.5-0.6
			C47.4,48.6,42.6,45.3,28,45.3c-7.4,0-19.6,1.2-8.3,13.9c0,0,42,39.1,45.8,44.7c3.9,5.6,7,15.4,7,26.6v35.3
			c0,7.3,3.8,11.6,12.7,11.6c9.7,0,12.4-6.9,12.4-11.6l0-13.6C97.7,151.3,97.7,137.4,97.9,127.8z"/>
		<path class="st1" d="M97.7,91.9c-6.7-17.2-6.1-33.7,5-49.2c12.6-17.5,34.6-24.2,49.8-38.1c-0.9,15.3-6.2,31.2-12.6,45.9
			C129.7,73.2,100.4,75.3,97.7,91.9"/>
	</g>
</g>
</svg>
