<svg id="Capa_1" data-name="Capa 1" xmlns="http://www.w3.org/2000/svg" viewBox="0 0 7214.81 2021.85"><defs><style>.cls-1{fill:none;stroke:#fff;stroke-width:12px;}</style></defs><title>Skyline BCN</title><path class="cls-1" d="M2750.31,1004.83l21.55,12-17,8.61h-5.74Zm30.62-19,20.79,15.9-19.72,10-21.29-11.89Zm-7.86-6-22.2,15.36,1.8-31Zm1.74-47.5-21.39,19,2.2-38Zm-1.87-47.7-16.54,15.43,1.7-29.21Zm30.89-34.74-13.7-23.19,12.49.89Zm-44.46-1.07,1.24-21.22,12.31-.88Zm22.17-18.12L2799,860.3l-19.18,17.89L2762.38,862Zm5.23,53.91,18-16.83,1.92,35.35Zm-4.91,41.44-19.2-18.94,17.2-16.06,20.23,18.78Zm27.58,27.22-20.86-20.59,18.83-16.76Zm-28.23,20.92-21.11-16.15L2781.53,939l20.85,20.58Zm28.91-8.55,1.73,32-22.77-17.43Zm-3.52,59.83-14.68-8.2,20.44-10.35,1,18.55Zm43.69,166.33,1.41,1.34v10.69l-.69,0-1.33-12.65Zm54.7,21.46v1h-.25Zm2201.66-20.54v98.36a9,9,0,0,0-1.77,1.69,4.68,4.68,0,0,0-.36.52c-1.34,1.36-1,2.18-1.36,2.55-.05.18-.06.28-.09.43a5.8,5.8,0,0,0-1.84-.55h-.73a5.25,5.25,0,0,0-1.72-.3c-.23,0-.42,0-.56,0h-5.69c-.14,0-.33,0-.58,0a5.07,5.07,0,0,0-2,.43l-.28.13h-.05a5.49,5.49,0,0,0-1.95.34l-.24.09-.5.15H5086l-.84,0-.18-.07a3.42,3.42,0,0,0-1.31-.23.73.73,0,0,1-.2,0h-9.11c-.07,0-1.13,0-1.87,0h-.59a.62.62,0,0,1-.23,0c-.1,0-.26,0-1.4.28a5.61,5.61,0,0,0-2,.57,6.47,6.47,0,0,0-2.79,1.25,4.88,4.88,0,0,0-.92.44l-.1.07a9.08,9.08,0,0,0-.92.67,7.35,7.35,0,0,0-1.07,1.21l0,0a4.76,4.76,0,0,0-.93,1.93c-.06.1-.11.2-.16.3a4.27,4.27,0,0,0-.71,1.11h-62.65L5095,1192.73Zm109,99.36-21.45,6.38.18,5.67h-5.57v-6.44c0-.24.05-.54.07-.88a6.76,6.76,0,0,0-1.67-4.43,6,6,0,0,0-.45-1,11.45,11.45,0,0,0-.64-1.67l-.23-.4-.27-.4c-.26-.32-.45-.58-.77-.94a7.35,7.35,0,0,0-.84-.82c-.27-.14-.54-.48-1.13-.8l-.1-.07a15.88,15.88,0,0,0-1.46-.71,8.8,8.8,0,0,0-4-1.81,7.34,7.34,0,0,0-1.2-.51,6.78,6.78,0,0,0-1.67-.35l-.23-.08a6.2,6.2,0,0,0-1.86-.33,1.13,1.13,0,0,1-.31,0h-.85c-1.11,0-2.73,0-2.81,0h-11.38l-1.85,0h-.65l-.55,0a5.33,5.33,0,0,0-1.46.3h0c-.14.05-.27.09-.4.15l-1.42,0-1.43,0-.33-.12h0c-.21-.07-.42-.12-.64-.18s-.4-.16-.62-.23a7.38,7.38,0,0,0-2.41-.38h-.28a7.22,7.22,0,0,0-4.25-.8h-8.55a7.42,7.42,0,0,0-3.38.39h-.93v-89h1.42ZM2730.76,1202.7c-2.89.62-5.67,2.4-6.1,6.16v.11h-3.87l1.1-9.78Zm40.55-33-25.11,11.56a8.28,8.28,0,0,0-2.67-.52c-3,0-5.64,1.79-8,4.88h-7.33l1.8,3.08-7.37,3.39,5-44.65Zm-3.63-47.65L2728.41,1141l4-35.86Zm14.47-96.61h-6.44l6.07-3.07,5.5,3.07Zm-7.8,46.11,6,.29h3.47l5.35-.25,29.51,25.84-40.17,19.38-36.85-17.7Zm-15.45-7.2,4.44,4.16-29.59,25,3.18-28.34Zm46.48,0,21.59.8,3.12,29.71-29.6-25.92Zm-16,57.67,41.44-20,4.42,42Zm-7.18,42.65-39.49-20.14,35.81-17.28,41.6,20Zm58.33,29.76-1.8-.91v-6.22h-11.81v-10h-10v5.1l-24.08-12.28,43-19.8Zm-.82,6.94,1.49-.54.06.54Zm-43-15.1v20.4a6.26,6.26,0,0,0-3.58-2.57v-12.9l1.14-2,2.11-3.62h-7.84c-2.37-2.64-5-4.79-8.51-4.88-3,0-5.65,1.79-8,4.88h-7.3l2.44,4.24.87,1.49v11.1a8.46,8.46,0,0,0-5.28,2.74l-6.15-2.43v-11.55l1.15-2,2.09-3.61h-.6l22.73-10.47,21.81,11.13ZM3771.38,839l-28.92-12.39-25.65,8.54-.25-11.36,26.48-5,28.94,7.53Zm-1.45,30.9-22.69-7.22-29.62,8.47-.38-16.7,26.58-6.93,26.71,9.62Zm3121.91,376.88-641.82-3.6v-26.91h2.91l-2.41-9-13.7-7.9v-11.5H6229V1173h2.48v-10.39l-14.41-8.32v-25.84h-10v25.84l-14.41,8.32V1173h2.48v14.86h-7.88v11.5l-13.69,7.91-2.41,9h2.9v50l-3.25,1.88-1,.58v35.4h-12.5V896.44h-13.05V860.6H6038.42v10.23H6015.6v59.73h-18.75v373.57H5990v-50.37h-69.35c.46-.66,1-1.23,1.42-1.91a41.66,41.66,0,0,0,6.85-22.12,34.27,34.27,0,0,0-9.15-23.2c-6.69-7.51-21.08-18.33-43.93-18.32-10,0-21.48,2.06-34.6,7.24-24.78,12.26-41.39,17.09-53.41,17.08-13.3,0-21.33-5.59-30-14.63s-17.35-21.46-31.12-34l-3-2.7-.9,3.91c-3,13.12-5.86,28.5-7,61.72l0,1,.68.71a247.51,247.51,0,0,0,23.85,22.35l-13.86,4.41,2.32,8.65,4.17,2.41v23.09h-53.4l-.19,0-9.27,1.4V868.41h-22.82V841.1h-69.1v20.48h-50.53v35.83H5504v406.72h-35.29l-6.8-116.24-3.27-1.09-5.3-36-1.52,0-3.16,40.08h-9.36l-3.12-23-6.46-33.33-2.21-4.49-7.05-45.52v-2.72h4V1080h-4v-2.64h-1.94V1080h-4v1.94h4v.43l-6.17,47-3.41,8.39-4.58,25.54-4.05,24-2,9-11.71.18-3.53-72.71-2.23-.47-.83-.17-3.24,32.36h-3.92l-.35-31-19.22.24-.81-58.65c-1.6-14.72-7.31-22.81-14-25.22l-3.88-43.5v-17.2h8.78v-4.23h-8.78v-5.77h-4.23v5.77h-8.79v4.23h8.79v16.52l-3.76,45.67c-6.13,3.78-11.1,12-12.15,23.67v53H5304l-9-53.93v-3.51h4v-1.94h-4V1057h-1.95v2.64h-4v1.94h4v.13H5293l-7.49,57.72-6.45,6.46-2.11,31.64-5.1-.85-6.09-25.77-1.5,0-7.65,38.63-6.5,1.08-2.14,20.51-5.39,2.16-1.05,13.59-6.49-1.07-1.08,80.83-2.71.81-82.38-94.73h6.66a14.57,14.57,0,0,0,14.57-14.57V940.68a14.57,14.57,0,0,0-14.57-14.57h-4.34l-30.61-112.89-6.31-348.83h-2.16l-2.82,349.81-27.2,111.9h-4.72a14.57,14.57,0,0,0-14.57,14.57v237.48a14.57,14.57,0,0,0,14.57,14.57h.42L4993.14,1290v-14.31h-5.91l3.12-12.44-30.32-37h-8.58l-1.56,2h-.72v.91l-5.74,7.24h-1.58v2l-5.21,6.59h-.93v1.16l-5.19,6.57h-.36v.45l-5.77,7.28h-1v.88l-9.1,7.28.54-14.2-18-17.2v-1h-1l-6.89-6.6v-2.76h-2.88l-3.93-3.75v-6.5h-1.76v-2.91h1.32v-4.28a10.43,10.43,0,0,0-2.3-6v-10.94a7.06,7.06,0,0,0-7.07-7.06h-9v18.1a10.11,10.11,0,0,0-2.16,5.68v4h1.6v9.53l-.63.06-4.19,4h-2.68v2.57l-7.12,6.79h-.82v.78l-17.46,16.68v14.22L4781,1226.4l-1.5,1.09s-11,8.08-22.79,16.14c-5.89,4-12,8.06-16.93,11.06a64,64,0,0,1-7.51,4l-16.44-20.31-23.73,30.81L4670,1234l0,0V1187l4.7-1,1.2-.26v-42H4665c.26-2.34.69-6.63.69-9.9a17.4,17.4,0,0,0-.22-3.15c-.22-.72-.24-2.07-2.18-2.37-2.54,0-8.14,1.75-8.23,1.75l-1.11.32v13.18l-1.77.39-.85.18-2.31,7h-1.34v-4.6h-8.28v-17.16l-8.32,1.8V1140h-5.85v10.58h-42.95v-4.14h-2.69v-9.59c-.12-3.79-3.39-5.87-6.54-5.87h-7.54c-3.15,0-6.42,2.08-6.54,5.87v9.58h-4.9v4.14h-42.94V1140h-5.85v-8.93l-8.32-1.78v17.15h-8.29v4.6h-1.34l-2.32-7-2.62-.57v-13.19l-1.09-.31c-.11,0-5.71-1.71-8.25-1.75-1.91.27-2,1.65-2.2,2.38a17.15,17.15,0,0,0-.22,3.14,97.38,97.38,0,0,0,.71,9.9h-10.85v36.8h-53.07c1.36-81.46,2.9-164.54,2.91-245,0-146-5.05-283.3-25.35-386.91-12.32-62.72-30.23-113.32-56.36-145.82a2.6,2.6,0,0,0-.33-.4c-16.91-20.87-37.24-34.22-61.74-38.34l-.4-.07-.37.07c-62.21,10.5-96.09,84.07-115.09,190.73-19,106.85-22.79,247.72-22.79,394.62,0,72.23.93,145.88,1.45,217.67H4016.11l-35.87-98.81-27.09-46.8-29.75,18.31-35.56-84.43-9.21-109.51-27.92-177.56a24,24,0,0,0,7.41-2.87c3.75-2.28,7.12-6.23,7.16-11.52s-3.41-9.23-7.16-11.52a27.87,27.87,0,0,0-27.33,0c-3.76,2.29-7.12,6.23-7.16,11.52s3.4,9.24,7.16,11.52a23.11,23.11,0,0,0,5.32,2.32l-1.52,31.18-5.71,203.3h-4.75l-3.39-121-17-165.54a23.93,23.93,0,0,0,7.53-2.9c3.75-2.28,7.12-6.22,7.16-11.51s-3.41-9.24-7.16-11.52a27.86,27.86,0,0,0-27.34,0c-3.75,2.29-7.11,6.24-7.15,11.53s3.4,9.23,7.15,11.51a23.65,23.65,0,0,0,6.68,2.73l-2.28,30.11-11.56,79.68-4.07,86.54-31.07-9.62-25.38,6.12-.82-36.37-13.28-158.19a23.72,23.72,0,0,0,6.67-2.74c3.74-2.27,7.11-6.22,7.16-11.51s-3.42-9.24-7.16-11.53a27.91,27.91,0,0,0-27.35,0c-3.75,2.29-7.11,6.24-7.15,11.53s3.4,9.23,7.15,11.51a23.42,23.42,0,0,0,7,2.8L3676,721.79l-12.57,178h-2.54l-3.39-116.41-11.65-124.09a24.78,24.78,0,0,0,9.32-3.24c3.75-2.28,7.11-6.23,7.15-11.52s-3.4-9.24-7.15-11.52a27.89,27.89,0,0,0-27.34,0c-3.76,2.28-7.12,6.23-7.16,11.52s3.4,9.24,7.16,11.52a24.55,24.55,0,0,0,9.4,3.25l-15.64,106.36-22.68,227.85-19.51-77.13-5.67,0-20.82,85.41-18.56-88.07h-5.71l-18.78,87.38-18.59-86.53-5.7,0-23.19,101.54h-11.81L3423,1119l-18.55,3.06-20.75-35.93-18.43,18.44v-67.24h-8.65c-1.77-25.27-12.84-43.61-26.29-60l-5.72-80H3323L3318,977.22c-13.68,14.12-22.18,32.77-25.07,56.23l-9.31,1.33-3.51,115.12h-52.47v-18.73l-2.37,1.37-1.34-22.63-4.7.08-.63,21.62-2.08-1.19v-37.65l-2.86-2.87-2.7-29-4.71.14-.7,19.13-6.43-51.42v-8.62H3206v-6.84h-6.9v-6.21h-7v6.21h-6.9v6.84H3192v8.6l-6.44,51.45-.71-19.14-4.7-.14-2.7,29-2.19,2.18-.68.68v37.65l-2.07,1.19-.63-21.62-4.7-.08-1.34,22.63-2.38-1.37v5.95c-2-30.6-3.3-51.5-3.31-51.58l-.15-2.41h-13.37l-9.49-19.55-9.21,19h-7.59v-20.89l3.08-1,1.78-.57v-16h-4.33v-4.84h4.71v-17h-4.45v-4.85h4.45v-16l-15.76-5-2.06-22-5.13.12-.06,1.26-2.94-36.29h-5.11l-3.94,50.58-17.79-129.21,2.48-3.2.92-1.19-2.49-5.91,0-4.41,0-1.35-2.07-1.4.16-.16c.54-.79,1.37-.87,1.69-3.19a3,3,0,0,0-.1-.76c-.05-.56-.09-2.64-.09-4.5,0-2.39,0-4.71,0-4.72v-1.6l4.81-2.72h-4.81v-4.35l-4.29.81-1,.18-2.25-.42-3.05-.57v4.35h-4.83l4.83,2.73v1.55s0,2.36,0,4.76c0,1.17,0,2.35,0,3.26,0,.46,0,.84-.05,1.1v.12a3,3,0,0,0-.1.78c.39,2.44,1.26,2.56,1.86,3.34l-1,.66-1.12.75-.07,5.75-2.48,5.92,3.41,4.39L3045.38,990.1l-3.93-50.59h-5.12l-2.94,36.29,0-1.26-5.13-.12-2.06,22-15.76,5v16h4.45v4.85h-4.45v17h4.71v4.84h-4.34v16l4.86,1.55v20.89H3008l-9.22-19-9.48,19.55H2976l-.15,2.41c0,.07-1.32,21-3.31,51.68v-6l-2.38,1.37-1.33-22.63-4.7.08-.62,21.62-2.09-1.19v-37.65l-2.87-2.87-2.7-29-4.69.14-.71,19.15-6.44-51.47v-8.59h6.86v-6.84h-6.9v-6.21h-7v6.21H2930v6.84h6.85v8.6l-6.43,51.46-.71-19.15-4.7-.14-2.7,29-2.18,2.19-.69.68v37.65l-2.07,1.19-.63-21.62-4.7-.08-1.33,22.63-2.38-1.37v47.3h-8.52v10.63H2905v22.6h-3.18v-2.29l-1.06-.72c-1.23-.83-3.43-3.21-7.81-3.33V1193l1.91-1.83,4.34-4.15h-13.85c-4.34-2.8-9-4.86-14.05-4.87-4.26,0-8.64,1.52-12.95,4.87h-9.1l-13.56-129c3.64-2.61,6.84-5.18,6.84-5.2l10.87-7.22-.66-17.32-21.82-2.76-.22,1.76v-1.78h-7.88l-10.94-201.17,7.21-1.77.33-16.82-5.63-7.25c0-.06-1.42-2.22-3.09-4.55V748.55l-16.36-16.37V707.66h-5.88l-4.85-44.74h-4.69l-4.85,44.74h-5.89v24.52l-16.36,16.37v46.69c-1.28,1.86-2.22,3.34-2.24,3.36l-5.54,7.12.33,16.82,7,1.72-11.69,201.22h-6.06l-22,2.78-.65,17.31,11,7.33s2.94,2.38,6.37,4.85l-14.36,127.91h-4.4c-2.37-2.64-5-4.79-8.51-4.88-3,0-5.64,1.79-8,4.88h-7.3l2.45,4.24.87,1.49v11.1a8.08,8.08,0,0,0-6,3.56v-18.92l-1.82-.48v-8h-9.69v8.09l2.28.62v2h-4.08v-3.2l-.55-.66c-.82-.92-2.26-4.06-5.91-4.62v-17.72l1.6-2.77,2.1-3.61h-9.31c-3.1-3.52-6.47-6.3-10.81-6.38-3.68,0-7,2.24-10,6.38h-8.66l2.57,4.44,1.22,2.12v15.44c-4.19.38-8.44,2.49-9.06,7.74l0,.17v2.67h-5.07V1181h-11.76V1211c-4.45-5.15-6.49-12.72-8.95-20.57l4.23-7.33H2561.2l5.82,7.52c-2.31,12.93-6.87,19.07-12.71,22.8h-3.77v-16.63h-68.79V1218h-7.41l4.65,8v65.12h-4.13l-10.11-10.12h-12l-13.93-8-4.22-266.33,8.36-.75,2-8.9a5.18,5.18,0,0,0,3.11-1.77,9.67,9.67,0,0,0,1.12-2.38c.13-.35.24-.68.33-.93s.41-.23.41-.24l5.71-2.85-17.41-4.34-1.12-1A12,12,0,0,0,2438,980a2.87,2.87,0,0,0-2.22-2.94c-.38-.08-.75-.13-1.1-.17l0-1.33c.07-.4.28-1.44.52-2.51.16-.67.33-1.36.48-1.84,0-.1.06-.2.09-.28a28.56,28.56,0,0,0,3.08-2.79c1.27-2.05.77-2.82.94-4.46,0-1.78-.11-3.82-.11-4.9v-.18c.72-1.06,2.7-3.77,2.91-3.92a11.7,11.7,0,0,0,2.26-6,2.52,2.52,0,0,0-1.43-2.43c-1-.42-1.38-.38-2.05-.67l-.06,0c.3-2.1.38-4.4.39-4.45l0-.69-8.07-13.66a6.26,6.26,0,0,0,1.24-3.68c0-.21,0-.38,0-.62a15.52,15.52,0,0,0-2.56-7.76l-.63-.93-2-.19s0-.09,0-.12h0a26.14,26.14,0,0,0,1.11-2.65c.11-.28.22-.54.31-.75l.58-.31,4.5-.9,2-.4-.74-12.3c1.23.72,3,1.66,3,1.67l6.52,3.48-4.08-8.17a1.48,1.48,0,0,0,.3-.45,2.94,2.94,0,0,0,.33-1.39v-.43c0-.32,0-1.1,0-1.91,0-.42,0-.83,0-1.12,0-.09,0-.17,0-.22.34-1,.84-2.75.86-2.81l.21-.74-1.62-4.48-.18-.49-1.9-1.91c-.19-.42-.51-1.1-.86-1.81s-.6-1.17-.91-1.69a4.2,4.2,0,0,0-1.63-1.73c-.67-.31-2.46-.93-3.88-1.4.13-.35.33-.87.52-1.42a11.3,11.3,0,0,0,.83-3,28.67,28.67,0,0,0-.71-3.75l-.2-.86-2.71-2-.54-.38-3.78-.29-.49,0-2.78,1-.45.15-1.87,1.68-.64.57-.12.86a22.6,22.6,0,0,0-.23,2.53,3.25,3.25,0,0,0,.26,1.4c.17.37.48,1.28,1,2.22l-.12-.05-.3-.1-5.15-.34-5.87-1.54-3.56-2.09-2.22-2.07-.29-.27-3.33-1.45-.7-.3-2.59.57-.33.06-2.88,1.63-3.08,1.73,4.23,3.29,2.85,2.3.17.13.2.1s3.4,1.83,4,2.12,2.23,1,3.2,1.33c.27.1.72.26,1.09.42l.48.2,0,0V875c0,.5-.1,1.79-.12,2.83a4.69,4.69,0,0,0,.32,1.88c0-.05.13.49.26,1a5.79,5.79,0,0,0,.8,2.12c.44.56,2.94,3.42,3,3.48l1.68,2,.43-.44c0,.65,0,1.26,0,1.63a12.1,12.1,0,0,0-1.57,3.32c-.11.63-.28,2.09-.46,3.56-.08.73-.17,1.43-.25,2,0,.26-.07.49-.08.65-.3,1.12-.64,3.58-.91,4a14,14,0,0,1-.74,1.19,4.21,4.21,0,0,0-.88,2.29,2.63,2.63,0,0,0,1.45,2.28,4.57,4.57,0,0,0,1.58.27h.4l1.42,0c.18,1.4.37,2.8.36,2.8,0,.36.09.93.18,1.55l-3.49.32-.63.93a15.4,15.4,0,0,0-2.58,7.76c0,.24,0,.45,0,.64a6.27,6.27,0,0,0,1.24,3.66l-8.06,13.67,0,.68s.09,2.38.39,4.45c-.14.06-.32.13-.51.19-.5.17-.68.15-1.33.38l-.06,0a.59.59,0,0,0-.23.13,2.38,2.38,0,0,0-1.41,2.38,11.36,11.36,0,0,0,2.25,6c.21.16,2.19,2.88,2.9,3.92v.18c0,1.08-.11,3.13-.11,4.91.18,1.64-.34,2.42.94,4.45a29.07,29.07,0,0,0,3.1,2.81c.35,1,.94,4,1.09,4.64l.05,1.31c-.36,0-.75.1-1.11.17a2.85,2.85,0,0,0-2.22,2.94,12.27,12.27,0,0,0,.87,3.59l-1.12,1L2387,988.89l5.7,2.85.29.16a.38.38,0,0,1,.11.11,16.34,16.34,0,0,0,1.46,3.28,5.17,5.17,0,0,0,3.1,1.77l2,8.9,8.36.75L2403.74,1273l-13.93,8h-11.95l-10.11,10.12h-7.82v-6.81l3-1.39,1.36-.64v-40.82l-4.87-1.26-.51-.83v-66.19h-11.54v3.48h-4.45l-1.4-1.29v-16.79l.65-.16,1.76-.43.1-5.88,0-2.39h-4.94l-.75-2.6-.49-1.7H2316v4.72l-1.21.31-1.84.44.23,9.22,2.75.35v15.29l-10.4,2.57v31c-7.22-6.5-23.83-18.18-50.38-18.74-26.63.56-43.26,12.24-50.49,18.74v-31l-10.4-2.56v-15.29l.74-.09,2-.26.22-9.22-3-.75v-4.72h-21.93l-1.24,4.3h-4.94l.14,8.27,2.41.59v16.79l-1.39,1.29h-4.44v-3.48h-11.55v66.19l-.52.84-3.1.8-1.76.45v40.82l4.37,2v19.75H2101.8a826,826,0,0,0,16.74-165.89c-.05-90-14.5-176.63-40-251.81l27.83-46.69h-10.11L2118.77,814l-15.47.72,29.51-29.53-94.82,8c-52.36-95.55-126.48-157.11-211-157.35-47.26,0-97.45,19.45-148.32,62.75l-.83.7v493.66H1604l-1.88-7-6.82-1.82v-11l-3.88-1v-12.36h-9.92v8.3l-14.5-8.37v-13.77c-.25-10.72-7.58-17.33-15.91-19.46-.73-10.39-1.48-18.25-2.25-23.67a54.26,54.26,0,0,0-1.25-6.63,9.89,9.89,0,0,0-.81-2.09,3.08,3.08,0,0,0-2.64-1.72,3,3,0,0,0-2.66,1.74c-1.82,3.64-2.8,13.6-4,32.26-8.72,2.06-16.52,8.78-16.55,19.55v27.23h-64.48v-27.5l2.19-5v-8.24l-7.44-15.47-8.19-8.19-8.7-57.54h-4.65l-8.89,57.12-8.72,9-7.88,15.22v9.82l2.31,5.14v24.48c-5.86.18-21.76.61-33.08.61-3.53,0-6.61,0-8.75-.14l-1.3-.09v-19.52l-19.23-11.09-16.46,9.49h-1.34v-31h-9.08V1133l-.76-.2v-24l2.55-2.56.69-.69v-5.77l-6.06-3.51c-.46-15.27-4.39-31.35-25.86-44.78V1031.8l0-.15c-.72-6.58-3.55-10.13-6.48-12.16l-2.43-34h-4.7l-2.44,34c-2.93,2-5.75,5.58-6.47,12.16l0,.16v19.67c-21.47,13.43-25.4,29.51-25.86,44.79l-6.06,3.5v5.78l3.24,3.24v24l-.76.2v-12.92h-9.09v31h-1.33l-16.48-9.49-19.22,11.09v19.52c-2,.13-5.84.27-10,.23-11.33,0-27.22-.44-33.08-.61V1147.4l2.32-5.14v-9.83l-7.9-15.21-8.71-9-8.89-57.12h-4.66l-8.69,57.55-8.19,8.18-7.44,15.47v8.24l2.18,5v27.5H1032.1v-27.21c0-10.79-7.84-17.5-16.56-19.56-.62-10.33-1.3-18.16-2-23.56a53.37,53.37,0,0,0-1.2-6.62,9.65,9.65,0,0,0-.8-2.1,2.88,2.88,0,0,0-5.28,0c-1.85,3.65-2.93,13.63-4.29,32.38-8.34,2.14-15.69,8.74-15.93,19.4v13.84l-14.5,8.38v-8.31h-9.92v12.36l-2.14.57-1.74.47v11l-6.82,1.82-7.64,28.52-8.94,2.39v14.62H868c-7.56-30.55-16-70.26-25.53-121.54-13.11-52.33-24.07-104.59-56.75-158.4-5.45-5.53-7.4-10.74-7.41-16,0-4.19,1.33-8.46,3.32-12.77a60.68,60.68,0,0,0,7.74,3.86,88.56,88.56,0,0,0,9.34,3.22l10.6,13.95V971l10.14,1.44,4.8-38.15c4,.32,8.17.5,12.42.5h0c18.39,0,35-3.09,47.27-8.16s20.3-12.12,20.42-21c-.14-8.87-8.31-15.93-20.44-21s-28.9-8.14-47.3-8.14h0c-3.68,0-7.26.16-10.78.4L814.67,750.17l-4.94-21-1.61.16-3.68,148.1-57.82-4.92L744,911.05l18.26,1.07c-5.19,8.13-5.66,19.81-10.09,27.6l-.26.45.26.44c36.24,61.62,47.09,115.58,57.75,169.64,6.27,36.7,8.58,66.11,8.58,91.4,0,10.59-1.84,35.28-2.53,44.66m6280.16,0"/><line class="cls-1" x1="821.91" y1="1246.42" x2="241.28" y2="1246.42"/></svg>