<?xml version="1.0" encoding="utf-8"?>
<!-- Generator: Adobe Illustrator 23.0.2, SVG Export Plug-In . SVG Version: 6.00 Build 0)  -->
<svg version="1.1" id="Capa_1" xmlns="http://www.w3.org/2000/svg" xmlns:xlink="http://www.w3.org/1999/xlink" x="0px" y="0px"
	 viewBox="0 0 200 200" style="enable-background:new 0 0 200 200;" xml:space="preserve">
<style type="text/css">
	.st0{fill:none;stroke:#575756;stroke-width:8;stroke-miterlimit:10;}
	.st1{fill:none;stroke:#575756;stroke-width:8;stroke-linecap:round;stroke-linejoin:round;stroke-miterlimit:10;}
	.st2{fill:none;stroke:#575756;stroke-width:6.8636;stroke-linejoin:round;stroke-miterlimit:10;}
	.st3{fill:none;stroke:#575756;stroke-width:5.72;stroke-linecap:round;stroke-linejoin:round;stroke-miterlimit:10;}
	.st4{fill:none;stroke:#575756;stroke-width:4.7438;stroke-linecap:round;stroke-linejoin:round;stroke-miterlimit:10;}
	.st5{fill:none;stroke:#575756;stroke-width:7.2502;stroke-linecap:round;stroke-linejoin:round;stroke-miterlimit:10;}
	.st6{fill:none;stroke:#575756;stroke-width:5.8268;stroke-linecap:round;stroke-linejoin:round;stroke-miterlimit:10;}
	.st7{fill:#E6007E;}
</style>
<circle class="st0" cx="100.8" cy="48.4" r="16"/>
<path class="st1" d="M170.9,111.5c0,0-25.3,2.9-38.3-18.8c-7.7-12.9-15.8-12-31.6-12.4l0,0c-16-0.5-23.9-0.3-31.6,12.6
	c-13,21.7-38.3,18.8-38.3,18.8"/>
<path class="st1" d="M84.8,102.5v25.4H52.6c0,0-8.9,0-9.3,8.7c0,0-2.6,7.3,10.4,10.4c12.9,3.1,78.7,22.9,78.7,22.9"/>
<path class="st1" d="M117.1,102.5v25.4h32.2c0,0,8.9,0,9.3,8.7c0,0,2.6,7.3-10.4,10.4c-12.9,3.1-78.7,22.9-78.7,22.9"/>
</svg>
