<?xml version="1.0" encoding="utf-8"?>
<!-- Generator: Adobe Illustrator 23.0.2, SVG Export Plug-In . SVG Version: 6.00 Build 0)  -->
<svg version="1.1" id="Capa_1" xmlns="http://www.w3.org/2000/svg" xmlns:xlink="http://www.w3.org/1999/xlink" x="0px" y="0px"
	 viewBox="0 0 200 200" style="enable-background:new 0 0 200 200;" xml:space="preserve">
<style type="text/css">
	.st0{fill:none;stroke:#575756;stroke-width:8;stroke-miterlimit:10;}
	.st1{fill:none;stroke:#575756;stroke-width:8;stroke-linecap:round;stroke-linejoin:round;stroke-miterlimit:10;}
	.st2{fill:none;stroke:#575756;stroke-width:6.8636;stroke-linejoin:round;stroke-miterlimit:10;}
	.st3{fill:none;stroke:#575756;stroke-width:5.72;stroke-linecap:round;stroke-linejoin:round;stroke-miterlimit:10;}
	.st4{fill:none;stroke:#575756;stroke-width:4.7438;stroke-linecap:round;stroke-linejoin:round;stroke-miterlimit:10;}
	.st5{fill:none;stroke:#575756;stroke-width:7.2502;stroke-linecap:round;stroke-linejoin:round;stroke-miterlimit:10;}
	.st6{fill:none;stroke:#575756;stroke-width:5.8268;stroke-linecap:round;stroke-linejoin:round;stroke-miterlimit:10;}
	.st7{fill:#E6007E;}
</style>
<polygon class="st1" points="103.1,140 109.5,151 115.8,162 103.1,162 90.4,162 96.7,151 "/>
<line class="st1" x1="39.7" y1="129" x2="166.5" y2="129"/>
<path class="st5" d="M158.9,83c3.1-1.3,6.6-1.8,10.4,1.5c0,0,8.9,7.9-2.4,25.4c0,0-5.9,10.2-15,4.6l0,0c-9.1,5.6-15.5-4.6-15.5-4.6
	c-11.3-17.5-2.4-25.4-2.4-25.4c7.1-7.6,15.3-1.8,15.3-1.8s0.7-6.9-6.1-13.8"/>
<path class="st6" d="M161.5,71.3c-1,1.9-3.8,2.8-3.8,2.8s-0.8-2.8,0.2-4.7c1-1.9,3.8-2.8,3.8-2.8S162.5,69.4,161.5,71.3z"/>
<path class="st1" d="M54.2,85.8c0,0,0.4-0.8,1.2-1.8c0.6-0.7,1.5-1.6,2.6-2.3c1-0.6,2.1-1.1,3.5-1.4c0.9-0.2,2-0.3,3.2-0.2
	c0,0,10.6,0.5,10.6,11.9c0,7-3.6,10.5-10.6,15.9"/>
<path class="st1" d="M54.2,85.9c0,0-2.9-6.2-10.5-5.7c0,0-10.6,0.5-10.6,11.9c0,9.2,14.3,19.2,21.1,24.2"/>
</svg>
