<?xml version="1.0" encoding="utf-8"?>
<!-- Generator: Adobe Illustrator 23.0.2, SVG Export Plug-In . SVG Version: 6.00 Build 0)  -->
<svg version="1.1" id="Capa_1" xmlns="http://www.w3.org/2000/svg" xmlns:xlink="http://www.w3.org/1999/xlink" x="0px" y="0px"
	 viewBox="0 0 200 200" style="enable-background:new 0 0 200 200;" xml:space="preserve">
<style type="text/css">
	.st0{fill:none;stroke:#575756;stroke-width:8;stroke-miterlimit:10;}
	.st1{fill:none;stroke:#575756;stroke-width:8;stroke-linecap:round;stroke-linejoin:round;stroke-miterlimit:10;}
	.st2{fill:none;stroke:#575756;stroke-width:6.8636;stroke-linejoin:round;stroke-miterlimit:10;}
	.st3{fill:none;stroke:#575756;stroke-width:5.72;stroke-linecap:round;stroke-linejoin:round;stroke-miterlimit:10;}
	.st4{fill:none;stroke:#575756;stroke-width:4.7438;stroke-linecap:round;stroke-linejoin:round;stroke-miterlimit:10;}
	.st5{fill:none;stroke:#575756;stroke-width:7.2502;stroke-linecap:round;stroke-linejoin:round;stroke-miterlimit:10;}
	.st6{fill:none;stroke:#575756;stroke-width:5.8268;stroke-linecap:round;stroke-linejoin:round;stroke-miterlimit:10;}
	.st7{fill:#E6007E;}
</style>
<path class="st3" d="M92,66.6l4.3,3.5c-0.5,1.4-0.7,2.8-0.9,4.2l-5.3,1.4c-0.7,0.2-1.2,0.9-1,1.6l1,5.6c0.1,0.8,0.8,1.2,1.5,1.2
	l5.5-0.6c0.6,1.3,1.4,2.5,2.3,3.6l-2.8,4.7c-0.4,0.7-0.2,1.5,0.4,1.9l4.7,3.2c0.6,0.4,1.4,0.3,2-0.3l3.5-4.3
	c1.4,0.5,2.8,0.7,4.2,0.9l1.4,5.3c0.2,0.7,0.9,1.2,1.6,1l5.6-1c0.7-0.1,1.2-0.8,1.2-1.5l-0.6-5.5c1.3-0.6,2.5-1.3,3.6-2.3l4.7,2.8
	c0.7,0.4,1.5,0.2,1.9-0.4l3.2-4.7c0.4-0.6,0.3-1.4-0.3-2l-4.3-3.5c0.5-1.3,0.7-2.8,0.9-4.2l5.3-1.4c0.7-0.2,1.2-0.9,1-1.6l-1-5.6
	c-0.1-0.7-0.8-1.2-1.5-1.2l-5.5,0.6c-0.6-1.3-1.4-2.5-2.3-3.6l2.8-4.7c0.4-0.7,0.2-1.5-0.4-1.9l-4.7-3.2c-0.6-0.4-1.4-0.3-2,0.3
	l-3.5,4.3c-1.4-0.5-2.8-0.7-4.2-0.9l-1.4-5.3c-0.2-0.7-0.9-1.2-1.6-1l-5.6,1c-0.7,0.1-1.2,0.8-1.2,1.5l0.6,5.5
	c-1.3,0.6-2.5,1.4-3.6,2.3l-4.7-2.8c-0.7-0.4-1.5-0.2-1.9,0.4l-3.2,4.7C91.3,65.3,91.3,66.2,92,66.6z M116.9,70
	c3.2,2.2,4,6.7,1.8,9.9c-2.2,3.2-6.7,4-9.9,1.8c-3.2-2.2-4.1-6.7-1.9-10C109.2,68.5,113.7,67.7,116.9,70z"/>
<path class="st4" d="M116.6,106.8l0.3,1.7c0,0.5,0.5,0.8,1,0.8l3.7-0.4c0.4,0.9,1,1.7,1.6,2.4l-1.9,3.2c-0.2,0.5-0.1,1,0.3,1.3
	l3.1,2.2c0.4,0.3,1,0.2,1.3-0.2l2.3-2.9c0.9,0.3,1.9,0.5,2.8,0.6l0.9,3.6c0.1,0.5,0.6,0.8,1.1,0.7l3.8-0.7c0.5-0.1,0.8-0.5,0.8-1
	l-0.4-3.7c0.9-0.4,1.7-0.9,2.4-1.6l3.2,1.9c0.5,0.2,1,0.1,1.3-0.3l2.2-3.1c0.3-0.4,0.2-1-0.2-1.3l-2.9-2.3c0.3-0.9,0.5-1.9,0.6-2.8
	l3.6-0.9c0.5-0.1,0.8-0.6,0.7-1.1l-0.7-3.8c-0.1-0.5-0.5-0.8-1-0.8l-3.7,0.4c-0.4-0.9-1-1.7-1.6-2.4l1.9-3.2c0.2-0.5,0.1-1-0.3-1.3
	l-3.1-2.2 M134.9,99.8c2.2,1.5,2.7,4.5,1.2,6.7c-1.5,2.2-4.5,2.7-6.7,1.2c-1.6-1.1-2.3-3-2-4.9"/>
<path class="st1" d="M103.9,132.1c0,0,0,0-12,6.4c-1.3,0.7-2.6,1.4-3.9,2.1c-14,7.5-18.7,3.1-18.7,3.1s-8.7-1.2-8.4-17.5
	c0.3-16.2-12.5-24.7-12.5-24.7c9.5-7.5,13.3-18.7,16.2-28.1C69.6,57,83.1,49.3,93.9,45.7"/>
<path class="st1" d="M91.3,141.2v20.9h41.6c0,0-3.6-21.8,1.8-32.4"/>
</svg>
