<?xml version="1.0" encoding="utf-8"?>
<!-- Generator: Adobe Illustrator 23.0.2, SVG Export Plug-In . SVG Version: 6.00 Build 0)  -->
<svg version="1.1" id="Capa_1" xmlns="http://www.w3.org/2000/svg" xmlns:xlink="http://www.w3.org/1999/xlink" x="0px" y="0px"
	 viewBox="0 0 200 200" style="enable-background:new 0 0 200 200;" xml:space="preserve">
<style type="text/css">
	.st0{fill:none;stroke:#575756;stroke-width:8;stroke-miterlimit:10;}
	.st1{fill:none;stroke:#575756;stroke-width:8;stroke-linecap:round;stroke-linejoin:round;stroke-miterlimit:10;}
	.st2{fill:none;stroke:#575756;stroke-width:6.8636;stroke-linejoin:round;stroke-miterlimit:10;}
	.st3{fill:none;stroke:#575756;stroke-width:5.72;stroke-linecap:round;stroke-linejoin:round;stroke-miterlimit:10;}
	.st4{fill:none;stroke:#575756;stroke-width:4.7438;stroke-linecap:round;stroke-linejoin:round;stroke-miterlimit:10;}
	.st5{fill:none;stroke:#575756;stroke-width:7.2502;stroke-linecap:round;stroke-linejoin:round;stroke-miterlimit:10;}
	.st6{fill:none;stroke:#575756;stroke-width:5.8268;stroke-linecap:round;stroke-linejoin:round;stroke-miterlimit:10;}
	.st7{fill:#E6007E;}
</style>
<g>
	<g>
		<path class="st7" d="M117.9,38.4c-2,0-3.6,1.6-3.6,3.6c0,2,1.6,3.6,3.6,3.6s3.6-1.6,3.6-3.6C121.4,40,119.8,38.4,117.9,38.4z"/>
	</g>
</g>
<g>
	<g>
		<path class="st7" d="M82.1,38.4c-2,0-3.6,1.6-3.6,3.6c0,2,1.6,3.6,3.6,3.6s3.6-1.6,3.6-3.6C85.7,40,84.1,38.4,82.1,38.4z"/>
	</g>
</g>
<g>
	<g>
		<path class="st7" d="M177.6,115.5c3.1-4.6,4.6-10.3,4.6-15.3c0-7.5-3.3-14.5-9.1-19.2c1.3-3,1.9-6.2,1.9-9.4
			c0-10-5.8-19.2-14.4-23.6c1.3-10.9-5.8-20.8-16.3-23.4c-4.1-9.5-13.3-16-22.9-16c-9,0-17,5.2-21.4,12.9C95.6,14,87.5,8.7,78.6,8.7
			c-9.6,0-18.8,6.5-22.9,16c-10.6,2.6-17.6,12.6-16.3,23.4c-8.6,4.3-14.4,13.6-14.4,23.6c0,3.2,0.6,6.4,1.9,9.4
			c-5.7,4.7-9.1,11.7-9.1,19.2c0,5,1.5,10.7,4.6,15.3c-3,4.2-4.6,9.2-4.6,14.3c0,6.7,2.7,13,7.5,17.7c-2.5,14.8,9.4,29.8,24.7,29.8
			c0.1,0,0.2,0,0.3,0c5.1,8.8,14.5,14.3,24.7,14.3c10.6,0,20.1-6.4,25-15.5c4.9,9.2,14.4,15.5,25,15.5c10.2,0,19.6-5.5,24.7-14.3
			c0.1,0,0.2,0,0.3,0c13.6,0,25-11.9,25-26.1c0-1.2-0.1-2.4-0.3-3.7c4.8-4.7,7.5-11,7.5-17.7C182.2,124.8,180.6,119.8,177.6,115.5z
			 M96.4,62.8c-2.1-1.2-4.5-1.9-7.1-1.9c-2,0-3.6,1.6-3.6,3.6c0,2,1.6,3.6,3.6,3.6c3.9,0,7.1,3.2,7.1,7.1v68
			c-5.2-5.9-12.9-9.7-21.4-9.7c-2,0-3.6,1.6-3.6,3.6s1.6,3.6,3.6,3.6c11.8,0,21.4,9.6,21.4,21.4c0,12.2-9.8,22.5-21.4,22.5
			c-8.3,0-15.9-4.9-19.4-12.5c-0.6-1.4-2.1-2.2-3.6-2c-0.3,0-0.5,0.1-0.8,0.1c-10.2,1.4-21.6-10.1-18.5-23c0.3-1.3-0.1-2.7-1.2-3.6
			c-4.1-3.4-6.5-8.4-6.5-13.7c0-3.2,0.9-6.4,2.6-9.2c4.3,3.5,9.6,5.6,15.2,5.6c2,0,3.6-1.6,3.6-3.6s-1.6-3.6-3.6-3.6
			c-9.7,0-17.9-8.9-17.9-18.9c0-6.1,3.1-11.8,8.3-15.1c1.6-1,2.1-3.1,1.2-4.8c-1.6-2.8-2.4-5.7-2.4-8.7C32.1,62,40,52.7,50,52.7
			c9.5,0,17.9,8.9,17.9,18.9c0,2,1.6,3.6,3.6,3.6s3.6-1.6,3.6-3.6c0-14.1-11.5-26.1-25-26.1c-1.2,0-2.4,0.1-3.6,0.3
			c0-0.1,0-0.2,0-0.3c0-8,6.5-14.3,14.3-14.3c3.8,0,7.4,1.5,10.1,4.2c1.4,1.4,3.7,1.4,5.1,0c1.4-1.4,1.4-3.7,0-5.1
			c-3.3-3.3-7.4-5.3-11.9-6c3.2-4.7,8.4-8.5,14.6-8.5c9.5,0,17.9,8.9,17.9,18.9V62.8z M157.2,126.3c5.6,0,11-2.1,15.2-5.6
			c1.7,2.8,2.6,6,2.6,9.2c0,5.2-2.4,10.2-6.5,13.7c-1,0.9-1.5,2.3-1.2,3.6c0.4,1.6,0.6,2.9,0.6,4.2c0,11.1-10,20.1-19.1,18.8
			c-0.3,0-0.5-0.1-0.8-0.1c-1.5-0.2-3,0.7-3.6,2c-3.5,7.6-11.1,12.5-19.4,12.5c-11.6,0-21.4-10.3-21.4-22.5
			c0-11.8,9.6-21.4,21.4-21.4c2,0,3.6-1.6,3.6-3.6s-1.6-3.6-3.6-3.6c-8.5,0-16.2,3.8-21.4,9.7v-68c0-3.9,3.2-7.1,7.1-7.1
			c2,0,3.6-1.6,3.6-3.6c0-2-1.6-3.6-3.6-3.6c-2.6,0-5,0.7-7.1,1.9v-28c0-10.1,8.4-18.9,17.9-18.9c6.2,0,11.4,3.8,14.6,8.5
			c-4.5,0.7-8.6,2.8-11.9,6c-1.4,1.4-1.4,3.7,0,5.1c1.4,1.4,3.7,1.4,5.1,0c2.7-2.7,6.3-4.2,10.1-4.2c7.9,0,14.3,6.4,14.3,14.3
			c0,0.1,0,0.2,0,0.3c-1.2-0.2-2.4-0.3-3.6-0.3c-13.6,0-25,11.9-25,26.1c0,2,1.6,3.6,3.6,3.6c2,0,3.6-1.6,3.6-3.6
			c0-10.1,8.4-18.9,17.9-18.9c10,0,17.9,9.3,17.9,18.9c0,3-0.8,5.9-2.4,8.7c-0.9,1.7-0.4,3.8,1.2,4.8c5.2,3.3,8.3,8.9,8.3,15.1
			c0,10.1-8.2,18.9-17.9,18.9c-2,0-3.6,1.6-3.6,3.6S155.2,126.3,157.2,126.3z"/>
	</g>
</g>
<g>
	<g>
		<path class="st7" d="M88.4,85.2c-1.3-1.5-3.6-1.6-5-0.3C71.9,95.2,53.5,87,53.5,71.6c0-2-1.6-3.6-3.6-3.6s-3.6,1.6-3.6,3.6
			c0,12.4,9.1,22.7,20.9,24.7c-1.4,4.3-5.4,7.5-10.2,7.5c-2,0-3.6,1.6-3.6,3.6s1.6,3.6,3.6,3.6c8.7,0,16-6.3,17.6-14.5
			c5-0.7,9.6-2.8,13.4-6.2C89.6,89,89.7,86.7,88.4,85.2z"/>
	</g>
</g>
<g>
	<g>
		<path class="st7" d="M50,147.8c-2,0-3.6,1.6-3.6,3.6s1.6,3.6,3.6,3.6c9.5,0,17.9,8.9,17.9,18.9c0,2,1.6,3.6,3.6,3.6
			s3.6-1.6,3.6-3.6C75,159.7,63.5,147.8,50,147.8z"/>
	</g>
</g>
<g>
	<g>
		<path class="st7" d="M78.6,119.2c-12.1,0-22.5,6.6-28,16.3c-1,1.7-0.4,3.9,1.3,4.9c1.7,1,3.9,0.4,4.9-1.3
			c4.3-7.5,12.4-12.7,21.8-12.7c2,0,3.6-1.6,3.6-3.6S80.5,119.2,78.6,119.2z"/>
	</g>
</g>
<g>
	<g>
		<path class="st7" d="M142.9,103.8c-4.8,0-8.8-3.2-10.2-7.5c11.9-2,20.9-12.3,20.9-24.7c0-2-1.6-3.6-3.6-3.6s-3.6,1.6-3.6,3.6
			c0,9.9-8,17.9-17.9,17.9c-4.4,0-8.6-1.6-11.9-4.6c-1.5-1.3-3.7-1.2-5,0.3c-1.3,1.5-1.2,3.7,0.3,5c3.8,3.4,8.5,5.5,13.4,6.2
			c1.6,8.3,8.8,14.5,17.6,14.5c2,0,3.6-1.6,3.6-3.6S144.9,103.8,142.9,103.8z"/>
	</g>
</g>
<g>
	<g>
		<path class="st7" d="M150,147.8c-13.6,0-25,11.9-25,26.1c0,2,1.6,3.6,3.6,3.6c2,0,3.6-1.6,3.6-3.6c0-10.1,8.4-18.9,17.9-18.9
			c2,0,3.6-1.6,3.6-3.6S152,147.8,150,147.8z"/>
	</g>
</g>
<g>
	<g>
		<path class="st7" d="M149.4,135.5c-5.5-9.6-15.8-16.3-28-16.3c-2,0-3.6,1.6-3.6,3.6s1.6,3.6,3.6,3.6c9.4,0,17.5,5.2,21.8,12.7
			c1,1.7,3.2,2.3,4.9,1.3C149.8,139.4,150.4,137.2,149.4,135.5z"/>
	</g>
</g>
</svg>
