<?xml version="1.0" encoding="utf-8"?>
<!-- Generator: Adobe Illustrator 23.0.2, SVG Export Plug-In . SVG Version: 6.00 Build 0)  -->
<svg version="1.1" id="Capa_1" xmlns="http://www.w3.org/2000/svg" xmlns:xlink="http://www.w3.org/1999/xlink" x="0px" y="0px"
	 viewBox="0 0 200 200" style="enable-background:new 0 0 200 200;" xml:space="preserve">
<style type="text/css">
	.st0{fill:none;stroke:#575756;stroke-width:8;stroke-miterlimit:10;}
	.st1{fill:none;stroke:#575756;stroke-width:8;stroke-linecap:round;stroke-linejoin:round;stroke-miterlimit:10;}
	.st2{fill:none;stroke:#575756;stroke-width:6.8636;stroke-linejoin:round;stroke-miterlimit:10;}
	.st3{fill:none;stroke:#575756;stroke-width:5.72;stroke-linecap:round;stroke-linejoin:round;stroke-miterlimit:10;}
	.st4{fill:none;stroke:#575756;stroke-width:4.7438;stroke-linecap:round;stroke-linejoin:round;stroke-miterlimit:10;}
	.st5{fill:none;stroke:#575756;stroke-width:7.2502;stroke-linecap:round;stroke-linejoin:round;stroke-miterlimit:10;}
	.st6{fill:none;stroke:#575756;stroke-width:5.8268;stroke-linecap:round;stroke-linejoin:round;stroke-miterlimit:10;}
	.st7{fill:#E6007E;}
</style>
<g>
	<g>
		<path class="st7" d="M185.4,123H11.1c-1.7,0-3,1.3-3,3c0,34.8,28.3,63.1,63.1,63.1h54.1c34.8,0,63.1-28.3,63.1-63.1
			C188.4,124.3,187.1,123,185.4,123z M125.3,183.1H71.2c-30.5,0-55.5-24-57-54.1h168.2C180.8,159.1,155.8,183.1,125.3,183.1z"/>
	</g>
</g>
<g>
	<g>
		<path class="st7" d="M161.4,50.8c0-0.2,0-0.4,0-0.8c-0.5-5-3.9-9.1-8.4-10.6l3.4-3.4c5.9-5.8,6.5-15,1.3-21.6
			c-5.5-6.7-15.5-7.7-22.2-2.1c-0.4,0.3-0.8,0.6-1.1,1l-3.7,3.8c-1.6-4.5-5.7-7.9-10.7-8.4c-6.7-0.4-12.3,4.7-12.7,11.4
			c0,0.2,0,0.4,0,0.7v4.6c-1.8-1-3.8-1.6-6-1.6c-0.2,0-0.4,0-0.8,0c-6.4,0.6-11.4,6.1-11.3,12.5v4.1c-1.8-1-3.9-1.6-6-1.6
			c-0.2,0-0.4,0-0.8,0c-6.4,0.6-11.4,6.1-11.3,12.5v44.6c0,1.7,1.3,3,3,3h51.1c6.6,0,12-5.4,12-12c0-2.2-0.6-4.2-1.6-6h4.1
			c6.5,0.2,12-4.8,12.6-11.4c0.1-2.4-0.5-4.8-1.6-6.7c2.7-0.3,5.2-1.5,7.1-3.4C160.1,57.1,161.4,54,161.4,50.8z M153.6,55.1
			c-1.1,1.1-2.6,1.8-4.3,1.8c0,0,0,0,0,0h-9c-1.7,0-3,1.3-3,3s1.3,3,3,3l0.3,0c3.3,0.2,5.9,3,5.7,6.2c-0.3,3.3-3.1,5.9-6.5,5.8
			h-14.5c-1.7,0-3,1.3-3,3c0,1.7,1.3,3,3,3c3.3,0,6,2.7,6,6c0,3.3-2.7,6-6,6H77.2V51.3c-0.1-3.3,2.5-6.2,5.7-6.5l0.3,0
			c3.3,0,6,2.7,6,6v0c0,1.7,1.3,3,3,3c0,0,0,0,0,0c1.7,0,3-1.3,3-3v0V36.2c-0.1-3.3,2.5-6.2,5.7-6.5l0.3,0c3.3,0,6,2.7,6,6v0
			c0,1.7,1.3,3,3,3c0,0,0,0,0,0c1.7,0,3-1.3,3-3v0v-15l0-0.3c0.2-3.3,2.9-5.9,6.2-5.7c3.3,0.3,5.9,3.2,5.8,6.5v2.5
			c0,1.2,0.7,2.3,1.9,2.8c1.1,0.5,2.4,0.2,3.3-0.7l8.2-8.3c0.2-0.2,0.5-0.4,0.7-0.6c4.2-3.4,10.3-2.8,13.7,1.3
			c3.2,4.1,2.8,9.9-0.9,13.5l-7.9,7.9c-0.9,0.9-1.1,2.2-0.7,3.3c0.5,1.1,1.6,1.9,2.8,1.9h2.5c0.1,0,0.1,0,0.2,0
			c3.3,0,6.1,2.5,6.4,5.7l0,0.3C155.4,52.4,154.7,53.9,153.6,55.1z"/>
	</g>
</g>
<g>
	<g>
		<rect x="38.7" y="68.8" transform="matrix(0.7071 -0.7071 0.7071 0.7071 -22.0276 90.5151)" class="st7" width="119" height="6"/>
	</g>
</g>
<g>
	<g>
		<rect x="119.3" y="32.8" class="st7" width="6" height="15"/>
	</g>
</g>
<g>
	<g>
		<rect x="101.2" y="47.8" class="st7" width="6" height="18"/>
	</g>
</g>
<g>
	<g>
		<rect x="83.2" y="62.8" class="st7" width="6" height="21"/>
	</g>
</g>
<g>
	<g>
		<rect x="122.3" y="44.8" class="st7" width="15" height="6"/>
	</g>
</g>
<g>
	<g>
		<rect x="104.3" y="62.8" class="st7" width="18" height="6"/>
	</g>
</g>
<g>
	<g>
		<rect x="86.2" y="80.9" class="st7" width="21" height="6"/>
	</g>
</g>
<g>
	<g>
		<path class="st7" d="M64.2,22.6C64.2,22.6,64.2,22.6,64.2,22.6c-4.3-6.4-12.9-8.1-19.2-3.9c-0.2,0.1-0.4,0.3-0.6,0.4L43.2,20
			l-1-0.7c-5.5-5.1-14.1-4.9-19.4,0.5c-2.6,2.7-3.9,6.2-3.9,9.9c0.1,3.7,1.6,7.1,4.2,9.7c0.8,0.7,1.6,1.4,2.6,1.9l2.5,2v1.5
			c0,8.3,6.7,15,15,15s15-6.7,15-15v-1.5l2.7-2.1C66.7,36.8,68.1,28.7,64.2,22.6z M57.3,36.4l-3.8,3c-0.7,0.6-1.2,1.4-1.2,2.4v3
			c0,5-4,9-9,9s-9-4-9-9v-3c0-0.9-0.4-1.8-1.2-2.4l-3.8-3c-0.1-0.1-0.2-0.2-0.4-0.2c-0.6-0.3-1.1-0.7-1.6-1.2
			c-1.5-1.4-2.4-3.4-2.4-5.5s0.7-4.1,2.2-5.6c1.5-1.6,3.6-2.4,5.6-2.4c2,0,3.9,0.7,5.4,2.2c0.1,0.1,0.2,0.2,0.3,0.3l3,2.2
			c1.1,0.8,2.5,0.8,3.6,0l3.2-2.4c1.7-1.2,3.8-1.6,5.9-1.2c2,0.4,3.8,1.6,5,3.3C61.4,29.3,60.6,33.9,57.3,36.4z"/>
	</g>
</g>
<g>
	<g>
		<rect x="74.2" y="11.7" class="st7" width="6" height="6"/>
	</g>
</g>
<g>
	<g>
		<rect x="92.2" y="107.9" class="st7" width="6" height="6"/>
	</g>
</g>
<g>
	<g>
		<path class="st7" d="M170.4,26.8v6c3.3,0,6,2.7,6,6c0,3.3-2.7,6-6,6v6c6.6,0,12-5.4,12-12S177,26.8,170.4,26.8z"/>
	</g>
</g>
<g>
	<g>
		<rect x="14.1" y="53.8" class="st7" width="6" height="6"/>
	</g>
</g>
<g>
	<g>
		<rect x="8.1" y="41.8" class="st7" width="6" height="6"/>
	</g>
</g>
<g>
	<g>
		<path class="st7" d="M125.3,104.9c-6.6,0-12,5.4-12,12h6c0-3.3,2.7-6,6-6c3.3,0,6,2.7,6,6h6C137.3,110.3,131.9,104.9,125.3,104.9z
			"/>
	</g>
</g>
<g>
	<g>
		<path class="st7" d="M44.1,77.9h-0.4c-1.3-5.2-6.1-9-11.6-9s-10.3,3.8-11.6,9h-0.4c-6.6,0-12,5.4-12,12s5.4,12,12,12h24
			c6.6,0,12-5.4,12-12C56.2,83.3,50.8,77.9,44.1,77.9z M44.1,95.9h-24c-3.3,0-6-2.7-6-6c0-3.3,2.7-6,6-6h3c1.7,0,3-1.3,3-3
			c0-3.3,2.7-6,6-6c3.3,0,6,2.7,6,6c0,1.7,1.3,3,3,3h3c3.3,0,6,2.7,6,6C50.1,93.2,47.5,95.9,44.1,95.9z"/>
	</g>
</g>
<g>
	<g>
		<path class="st7" d="M38.1,95.9h-12c-1.7,0-3,1.3-3,3v12c0,1.7,1.3,3,3,3h12c1.7,0,3-1.3,3-3v-12C41.1,97.2,39.8,95.9,38.1,95.9z
			 M35.1,107.9h-6v-6h6L35.1,107.9L35.1,107.9z"/>
	</g>
</g>
<g>
	<g>
		<path class="st7" d="M167.4,86.9c-5,0-9,4-9,9c0,5,4,9,9,9s9-4,9-9S172.4,86.9,167.4,86.9z M167.4,98.9c-1.7,0-3-1.3-3-3
			s1.3-3,3-3s3,1.3,3,3C170.4,97.6,169,98.9,167.4,98.9z"/>
	</g>
</g>
<g>
	<g>
		<path class="st7" d="M167.4,74.9c-11.6,0-21,9.4-21,21s9.4,21,21,21c11.6,0,21-9.4,21-21S179,74.9,167.4,74.9z M167.4,110.9
			c-8.3,0-15-6.7-15-15c0-8.3,6.7-15,15-15c8.3,0,15,6.7,15,15S175.7,110.9,167.4,110.9z"/>
	</g>
</g>
</svg>
