<?xml version="1.0" encoding="utf-8"?>
<!-- Generator: Adobe Illustrator 22.1.0, SVG Export Plug-In . SVG Version: 6.00 Build 0)  -->
<svg version="1.1" id="Capa_1" xmlns="http://www.w3.org/2000/svg" xmlns:xlink="http://www.w3.org/1999/xlink" x="0px" y="0px"
	 viewBox="0 0 1316.4 600" style="enable-background:new 0 0 1316.4 600;" xml:space="preserve">
<style type="text/css">
	.st0{fill:#E6007E;}
	.st1{fill:#F2F2F2;}
	.st2{fill:none;}
	.st3{fill:#FFFFFF;}
</style>
<title>Ysana-Home-club-ysana</title>
<rect class="st0" width="1316.4" height="600"/>
<path class="st1" d="M695.2,270.2c-0.2,14.1-0.4,34.5-0.4,35.7l-0.2,19.9c0,6.7-3.9,17-18.1,17c-12.9,0-18.5-6.2-18.5-17v-51.7
	c0-16.4-4.6-30.8-10.2-38.9c-5.6-8.2-67.1-65.6-67.1-65.6c-16.6-18.7,1.3-20.4,12.1-20.4c21.4,0,28.3,4.8,39.1,18.3
	c0.2,0.2,0.4,0.6,0.6,0.8c2.9,3.7,6.2,7.9,9.8,12.7c3.5,4.6,6.7,8.9,9.8,12.3c0.2,0.4,0.6,0.6,0.8,1l0.4,0.6l0.2,0.2
	c0.8,0.8,1.5,1.5,2.1,2.3c15.8,16.2,26.4,22.2,33.2,36.8C695.4,248.2,695.4,257.3,695.2,270.2 M694.8,217.6
	c4-24.3,47-27.4,61.7-60.7c9.4-21.4,17.2-44.7,18.5-67.3c-22.2,20.4-54.5,30.1-72.9,55.9C685.9,168.2,685.1,192.5,694.8,217.6
	 M658.9,116.2c-13.5,0-24.5,11-24.5,24.5s11,24.5,24.5,24.5s24.5-11,24.5-24.5S672.4,116.2,658.9,116.2L658.9,116.2z M326.3,264.6
	c-1.3,0.8-2.3,1.9-2.5,3.5c-0.8,2.5-1.5,5.2-2.7,8.1c-1,2.3-2.1,5-3.5,7.9c-1.5,2.9-3.1,5.8-5,8.5c-3.9,4.2-8.3,7.7-13.3,10.6
	c-4.6,3.1-10,4-15.4,3.1c-2.5-0.4-4.6-1.5-6.6-3.1c-1.7-1.7-2.7-4-2.9-6.4c-0.6-6.4-0.2-12.7,1-19.1c1.2-6.2,3.5-12.1,6.6-17.7
	c1-1.5,2.1-3.1,3.5-4.2c2.9-2.1,6.9-1.5,9.1,1.3c0.4,0.6,0.8,1.3,1,2.1c0.4,1.3,0.8,2.5,1,3.9c0.4,1.3,0.8,2.5,1.3,3.7
	c0.8,1.7,2.3,2.9,4.2,3.3c1.7,0.4,3.7-0.4,4.8-1.7c1-1,1.7-1.9,2.3-3.3c0.4-1.2,0.8-2.5,0.8-3.9c0-1.5,0-3.1,0-4.6s-0.2-2.9-0.4-4.4
	c-0.8-4-3.1-7.7-6.2-10.4c-4.4-3.9-10-6.2-16-6.4c-5.8-0.2-11.4,1.7-15.8,5.2c-1.9,1.3-3.7,3.1-5.4,4.8c-1.5,1.7-2.9,3.9-4.2,5.8
	c-2.1,3.5-3.9,7.1-5.2,11.2c-1.2,3.9-2.1,7.9-3.1,11.8c0,0.6,0,1-0.2,1.5c-0.2,0.4-0.2,0.8-0.2,1.2c-0.6,4.4-0.8,8.9-0.4,13.1
	c0.4,4.4,1.3,8.9,2.9,13.1c2.7,8.3,9.6,14.3,18.1,16h0.2c0,0,0,0.2,0.2,0.2l0,0h1.2l0.2,0.4c0.6,0,1.3,0,1.9,0.2h1.2
	c4,0.2,7.9,0.2,11.9-0.2c5.2-0.6,10.2-2.3,14.6-5c5.2-3.1,9.6-7.1,13.3-11.8c3.5-4.4,6.4-9.3,8.9-14.3c1.9-3.9,3.7-8.1,5.2-12.1
	l1.9-5.8c0.2-1.3,0-2.7-0.8-3.9c-0.8-1.3-1.9-2.1-3.5-2.5C329,263.7,327.4,263.8,326.3,264.6L326.3,264.6z M393.3,264.2
	c-1.3,0.6-2.3,1.5-2.9,2.9c-0.2,0.4-0.4,0.8-0.6,1.2c-0.2,0.4-0.4,0.8-0.6,1.2c0,0.2,0,0.4-0.2,0.6s-0.2,0.4-0.4,0.6
	c-2.3,4-4.8,8.3-7.1,12.3c-2.5,4-5,8.3-7.5,12.3c-1.3,2.3-3.1,4.6-4.8,6.7s-3.9,4.2-6,6c-1.3,1-2.3,1.7-3.3,2.3
	c-0.8,0.6-1.7,0.8-2.5,0.8c-1-0.2-1.7-0.6-2.3-1.3c-2.9-3.3-5-7.1-6.2-11.4c-0.6-2.7-1.2-5.6-1.3-8.3c-0.2-0.6,0-1.3,0.2-1.9
	l0.8-1.9c9.1-13.9,16.4-28.9,21.6-44.5c2.7-8.7,4.4-17.7,5-26.8c0-2.7-0.2-5.6-0.4-8.3c-0.4-2.7-1-5.4-1.9-7.9
	c-1-2.5-2.5-4.6-4.2-6.6c-1.7-1.7-3.7-3.1-6-4c-2.3-0.8-4.8-1.2-7.1-0.8c-2.7,0.4-5.2,1.2-7.3,2.5c-1.2,0.8-2.3,1.7-3.5,2.7
	s-2.1,1.9-3.1,3.1c-2.3,2.3-4.2,4.8-6,7.5c-1.5,2.7-2.9,5.6-4,8.5c-1.9,4.6-3.7,9.4-4.8,14.3c-1.2,4.8-2.3,9.8-3.1,14.8
	c-1.7,10-2.1,20-1.7,30.1c0.6,10,2.5,19.9,6,29.3c1,2.7,1.9,5.4,3.1,7.9c1.2,2.7,2.7,5,4.2,7.3c2.9,4.2,6.7,7.7,11.4,10
	c2.9,1.5,6.4,2.5,9.6,2.3c3.3-0.2,6.6-1.2,9.3-3.3c1.7-1.2,3.3-2.3,4.8-3.5c1.5-1.3,2.9-2.9,4.2-4.4c1.9-2.5,3.9-5,5.8-7.7
	s3.5-5.4,5-8.3c0.8-1.2,1.3-2.3,2.1-3.5s1.3-2.3,2.1-3.5c1.5-2.9,2.9-5.6,4.2-8.3c1.3-2.7,2.5-5,3.5-7.1s1.9-4.2,3.1-6.9
	c0.8-1.3,0.8-2.9,0.2-4.2s-1.5-2.3-2.9-3.1C396,263.5,394.7,263.7,393.3,264.2L393.3,264.2z M350.2,215.7c0.8-2.9,1.7-5.6,2.9-8.5
	c0.4-0.8,1-1.5,1.2-2.3c0.4-0.8,0.8-1.5,1.3-2.1c1.2-1.5,2.1-2.3,2.9-2.1s1.5,1,2.1,2.7c0.4,1.3,0.8,2.7,1,4c0.4,1.3,0.6,2.7,0.6,4
	c0,3.9-0.4,7.9-1.2,11.8c-1,5.2-2.3,10.4-4.2,15.2s-3.9,9.8-6.2,14.6c-0.8,1.5-1.5,3.1-2.1,4.4s-1.3,3.1-2.1,4.8l-0.6-1.5
	c0.4-6.2,0.8-12.1,1.2-18.1c0.4-6,1-12.1,1.5-18.1C348.8,221.4,349.4,218.6,350.2,215.7L350.2,215.7z M482.2,264.4
	c-1.3,0.6-2.3,1.7-2.7,3.1c-1,2.5-1.9,5-3.1,7.3c-1.5,3.1-3.1,6.4-4.8,9.4c-1.7,3.3-3.5,6.4-5,9.1c-1.2,1.9-2.3,3.9-3.7,5.8
	l-2.5,2.5c0-1,0-1.7-0.2-2.3c-0.2-0.6,0-1.3,0-1.9c0.2-3.1,0.2-6.4,0.4-9.6s0.4-6.4,0.8-9.4c0.2-2.7,0.6-5,1-7.5s0.8-4.8,1-7.3
	c0.6-3.9,0.6-7.7,0-11.6c-0.2-1.3-0.6-2.9-1.2-4.2c-0.4-1.3-1.2-2.7-1.9-4c-1.5-2.5-4.4-4-7.5-4c-1.3,0-2.7,0.6-3.9,1.2
	c-1.3,0.8-2.3,2.1-3.1,3.5s-1.5,2.7-1.9,4.2s-1,3.1-1.5,4.6c-0.2,1-0.4,1.9-0.6,2.7c-0.2,1-0.6,1.7-1,2.5
	c-6,11.8-11.9,23.3-18.1,35.1c-1,2.1-2.1,4-3.5,6c-1.2,1.9-2.5,3.9-3.7,5.8c-0.4,0.6-1,1.2-1.3,1.5c-0.4,0.4-1,1-1.5,1.5
	c-0.6-1.7-0.8-3.5-0.8-5.4c0-1.7,0-3.3,0-5c0.2-5,0.2-9.8,0.4-14.8s0.2-9.8,0.4-14.8c0-1.9-0.2-3.7-0.6-5.6s-1.3-3.7-2.5-5.2
	c-1.7-2.7-4.8-4.4-8.3-4.4c-3.3,0-6.6,1.7-8.3,4.6c-0.4,0.8-0.8,1.5-1.2,2.1c-0.4,0.8-0.8,1.7-1,2.5c-0.4,1.7-0.8,3.7-1.2,5.4
	c-0.4,1.7-0.6,3.5-0.6,5.2c-0.2,3.7-0.2,7.3,0,11s0.4,7.1,0.8,10.8c0.4,3.9,1.2,7.5,2.1,11.2c0.6,2.5,1.7,4.8,2.9,7.1
	c1.3,2.3,2.9,4.6,4.8,6.4c3.1,2.9,7.3,4.4,11.6,4.2c4.2-0.4,8.1-2.5,10.4-6c2.5-2.7,4.4-5.8,6.2-9.1c1.9-3.9,3.7-7.7,5.4-11.6
	s3.5-7.9,5.4-11.9c0.2-0.6,0.6-1.2,0.8-1.7s0.6-1.2,0.8-1.7h1c0.2,0.6,0.2,1.3,0.2,1.9c0,0.8,0.2,1.3,0.4,2.1
	c0.4,2.9,0.8,5.8,1.2,8.5c0.4,2.7,1,5.6,1.5,8.5c0.6,3.7,2.1,7.1,4.4,9.8c2.1,3.1,5.4,5,8.9,5.4c3.7,0.2,7.1-1.3,9.4-4
	c1.3-1.7,2.7-3.3,4-5s2.5-3.5,3.5-5.4l2.5-4.8c0.8-1.5,1.7-3.3,2.7-5c0.8-0.8,1.2-1.7,1.2-2.9c0.8-1.2,1.3-2.3,1.7-3.5
	c0.4-0.8,0.6-1.3,1-2.1c1.3-3.1,2.5-6,3.5-8.5c1-2.7,1.7-4.8,2.3-6.6c0.6-1.3,0.6-2.9-0.2-4c-0.8-1.3-1.9-2.3-3.1-2.7
	C484.9,263.7,483.3,263.7,482.2,264.4z M575.5,265.8c-1,0.4-2.1,0.8-3.1,1.2l-2.9,1.3l-1.2,0.6c-0.4,0.2-0.6,0.4-0.8,0.6
	c-0.8,0.6-1.7,1-2.7,1.3s-1.7,1-2.7,1.3c-0.4,0.2-0.8,0.4-1.2,0.6s-1,0.4-1.3,0.4c-0.6-0.8-1-1.5-1.3-2.1c-0.4-0.6-0.8-1.3-1.2-2.1
	c-2.5-3.9-6.2-6.6-10.4-7.9s-9.1-1-13.1,1c-3.1,1.2-5.8,2.9-8.5,4.8c-5.6,4-10.6,8.7-14.8,13.9c-4.2,5.2-8.1,10.8-11.2,17l-1.3,2.9
	c-0.6-1.2-1-2.5-1.2-3.7c-0.2-1.3-0.6-2.5-1-3.7c-0.2-1-0.2-2.1,0.4-3.1s1.3-1.7,2.1-2.3l6.4-6c2.1-1.9,4-4,6-6.2
	c5.8-6.7,11-13.9,15.8-21.4s9.4-15,13.7-22.9c3.7-6.4,5.8-13.5,6.2-20.6c0.2-3.1-0.2-6.2-1.2-8.9c-1-2.5-2.5-4.8-4.4-6.6
	c-1.9-1.7-4.4-3.1-6.9-3.7c-2.9-0.8-6-1-9.1-0.4c-4.6,0.6-9.1,1.9-13.1,4.2c-4,2.3-7.7,5-11,8.1c-4,3.9-7.5,8.3-10.4,13.1
	s-5.2,10-7.1,15.4c-2.5,7.5-4.2,15.2-5,23.1c-0.8,7.9-0.8,15.8-0.4,23.7c0.2,1.3,0.4,3.3,0.8,6s1,5.6,1.5,8.9s1.2,6.4,1.9,9.6
	c0.8,3.3,1.3,6,2.1,8.5c1.2,4.2,2.7,8.3,4.8,12.1c0.6,1.3,1.3,2.5,2.3,3.7s1.9,2.1,3.1,3.1c1.3,1.2,3.3,1.9,5.2,1.7s3.9-0.8,5.4-1.5
	c1.5-1,2.7-2.1,3.5-3.7c0.8-1.5,1-3.3,0.8-5c-0.2-2.7-0.2-5.4,0.4-8.1c0.4-2.7,1.3-5.2,2.5-7.5c2.5-5.4,6-10.6,9.8-15
	c4-4.4,8.5-8.3,13.5-11.6c2.7-1.9,4.6-2.7,6-2.1c1.3,0.6,2.5,2.3,3.7,5.8c-0.6,0.4-1.2,0.8-1.5,1.2c-0.4,0.4-0.8,0.8-1.2,1
	c-4.4,3.1-8.3,6.6-11.8,10.6s-6.4,8.5-8.3,13.5c-1,2.3-1.7,4.6-2.1,7.1c-0.6,2.3-0.6,4.8-0.4,7.3c0.2,2.9,1.2,5.6,2.5,8.1
	c2.5,4.4,7.1,7.3,12.1,7.7c2.9,0.2,5.6-0.2,8.3-1.3c2.1-0.8,4-1.7,6-3.1c1.9-1.2,3.5-2.7,4.6-4.6c1.3-1.7,2.5-3.5,3.5-5.2
	c1.2-1.9,1.9-3.9,2.7-5.8c1.9-4.8,3.1-9.8,4-15c0.8-5,1-10.2,0.8-15.4V287c0.6-0.4,1-0.8,1.5-1.2l1.5-1c0.8-0.4,1.3-0.6,1.9-1.2
	c0.8-0.4,1.5-1,2.1-1.3c0.6-0.4,1.7-1,2.7-1.5c0.8-0.2,1.5-0.6,2.1-1.2c1-0.4,1.9-1,2.7-1.5c0.8-0.6,1.7-1.2,2.5-1.7
	c1.5-1,2.7-2.3,3.1-3.9c0.4-1.3,0.2-2.9-0.6-4.2C581.8,265.2,579.1,264.4,575.5,265.8z M500.5,237.6c1.2-3.5,2.3-6.7,3.5-10.2
	c1.5-3.5,3.5-6.7,5.8-9.8c2.1-3.1,4.8-5.8,7.9-8.1c1.2-0.8,2.3-1.5,3.5-2.1s2.5-1.2,3.7-1.5c1.2-0.6,2.3-0.6,3.5,0
	c0.8,1,1.2,2.3,0.8,3.5c-0.2,1-0.2,1.9-0.4,2.9s-0.4,1.7-0.8,2.7c-1,2.1-1.9,4.2-2.7,6.4c-1,2.1-1.9,4.2-3.1,6.2
	c-3.9,6-7.7,11.8-11.8,17.5l-11.9,17.5l-0.8,1.2c-0.2,0.4-0.6,0.8-0.8,1.2c-0.6-0.2-1-0.2-1.2-0.6c0.4-2.7,0.8-5.4,1.2-7.9
	c0.4-2.5,0.8-5.2,1.2-7.9C498.6,244.4,499.5,240.9,500.5,237.6z M539.8,321.5c-1.3,1.3-3.3,2.3-5.2,2.7c-0.8-0.8-1.2-1.7-1.2-2.9
	c0-1,0.2-1.9,0.4-2.9c0.6-2.1,1.3-4,2.5-5.8c1.2-2.3,2.5-4.6,4-6.6c1.5-2.1,3.3-4,5-6c0.2,0.2,0.4,0.4,0.6,0.4l0.2,0.2
	c-0.2,2.9-0.6,5.6-1,8.3c-0.6,2.7-1.2,5.4-2.1,8.1C541.9,318.6,541,320.1,539.8,321.5L539.8,321.5z M763,288.7
	c3.5-1.9,6.7-4,9.8-6.2s6.4-4,9.6-6.2c0.6-0.4,1.2-0.8,1.5-1c0.6-0.4,1-0.8,1.3-1.2c2.5-1.9,2.9-5.4,1-7.9c-0.8-1-1.9-1.9-3.1-2.3
	c-1.3-0.4-2.9-0.4-4.2,0.2c-0.8,0.4-1.5,1-2.1,1.3c-0.6,0.4-1.3,1-1.9,1.5c-2.9,2.7-6.2,5-9.6,6.9s-7.1,3.9-10.6,5.4
	c-1,0.6-2.1,0.6-3.1,0c-2.7-1.7-5.2-3.3-7.7-4.8s-5-3.3-7.7-5.2c-1-0.8-1.7-1.5-2.1-2.7c-0.6-1.2-1.2-2.3-1.7-3.3
	c-0.8-1.7-0.4-3.9,1-5.2c1-1,2.1-1.5,3.3-2.1c1.3-0.4,2.7-0.6,4-0.2c1.5,0.2,3.3,0.8,4.6,1.5c1.3,0.8,2.7,1.9,3.5,3.5l1.2,1.5
	c0.4,0.6,1,1.2,1.3,1.5c1.2,1.2,2.9,1.7,4.4,1.2c1.7-0.4,2.9-1.7,3.3-3.5c0.6-1.9,0.4-4-0.4-5.8c-1.2-2.7-2.7-5.2-4.8-7.3
	c-2.9-3.1-6.6-5.4-10.6-6.4s-8.5-0.6-12.3,1c-4,1.7-7.7,4.4-10.2,8.1c-2.5,3.5-3.9,7.5-3.9,11.8c0,2.7,0.4,5.4,1.3,7.9
	c1,2.7,2.3,5.2,3.9,7.5c1.7,1.9,3.3,3.9,5.2,5.8s3.5,3.7,5.2,5.6l2.5,2.5c-0.4,0.6-0.8,1-1.2,1.5c-0.4,0.4-0.6,1-1,1.5
	c-1.5,2.1-3.1,4.4-4.2,6.7c-1.2,2.5-2.3,5-3.1,7.5c-2.7,6.7-2.1,14.1,1.5,20.4c1.9,3.7,5,6.7,8.7,8.9c3.7,1.9,7.9,2.7,12.1,2.1
	c3.9-0.4,7.7-1.7,10.8-4c3.1-2.5,5.4-5.6,7.1-9.1c5.4-11.6,4.8-25.1-1.9-36c-0.2-0.4-0.6-1-0.8-1.3l-0.8-1.2
	C762.6,289.5,762.8,289.1,763,288.7L763,288.7z M749.1,312c0.2,1.7,0.2,3.3,0,5s-0.4,3.3-0.8,5c-0.4,2.1-2.1,3.9-4.2,4.2
	c-2.3,0.2-4.6-1-5.8-3.1c-0.8-1.2-1.3-2.3-1.7-3.7c-0.4-1.3-0.4-2.9-0.2-4.2c0.6-2.7,1.5-5.2,2.7-7.7c1.3-2.7,2.7-5.2,4.2-7.7
	C746.6,303.2,748.7,307.4,749.1,312L749.1,312z M875.6,264.4c-1.3-0.6-2.7-0.8-4.2-0.4c-1.3,0.4-2.5,1.2-3.3,2.5
	c-4,7.5-8.1,14.5-12.1,21.2s-8.1,12.5-11.8,17.5c-1.3,1.7-2.7,3.3-4,4.6c-1.3,1.3-2.7,3.1-4,4.6c-0.4,0.6-1,1-1.5,1.3
	c-0.6,0.4-1.2,0.8-2.1,1.3v-2.1c0-0.6,0.2-1.2,0.4-1.7c0.2-1.9,0.6-4,1-6c0.4-1.9,0.8-3.9,1.3-5.8c1.5-5,3.1-10,4.6-15.2
	s3.1-10,4.8-15c0.6-2.1,1.2-4.2,1.5-6.4s1-4.2,1.2-6.4c0.4-1.9,0.4-3.9-0.2-5.8c-0.8-2.7-3.1-4.8-5.8-5.2c-1.3-0.2-2.7,0-4,0.6
	c-1.2,0.6-2.1,1.5-2.9,2.7c-0.4,0.4-0.8,0.8-1,1.2s-0.2,0.6-0.6,1c-1.7-1.2-3.3-2.5-4.8-3.7s-3.1-2.3-4.8-3.3
	c-5.4-2.7-11.2-3.7-17.2-3.1c-5.8,0.8-11.4,3.3-15.8,7.3c-5.8,4.8-10.6,11-13.9,17.7c-3.3,6.7-5.2,14.1-5.6,21.6
	c-0.2,3.1,0,6.4,0.8,9.4c0.8,3.3,2.1,6.2,4,8.9c4.6,8.1,14.8,10.8,22.7,6.2c0.2-0.2,0.4-0.2,0.8-0.4c1.5-0.8,2.9-1.7,4.2-2.7
	s2.5-2.1,3.7-3.1c1.7-1.7,3.3-3.3,4.6-5l4.2-5c0.2-0.4,0.6-0.8,1-1.2c0.4-0.4,1-0.8,1.5-1.3c0,0.8,0,1.7-0.2,2.5l-0.4,1.9
	c-0.2,2.3-0.4,4.6-0.6,6.9c-0.2,2.3-0.4,4.6-0.4,6.7c0,2.9,0.6,5.8,1.5,8.5c0.8,2.3,1.9,4.4,3.7,6.2c1.5,1.5,3.5,2.7,5.6,3.3
	c2.1,0.6,4.2,0.6,6.2,0c2.3-0.8,4.4-2.1,6.2-3.9c2.1-2.1,4-4.4,5.8-6.9c1.3-1.9,2.9-4,4.2-6c1.5-1.9,2.9-4,4-6l3.7-5
	c1.2-1.7,2.5-3.7,3.9-5.8c2.1-3.3,4-6.6,6-9.6c1.9-3.1,3.5-6,5-8.5s2.5-4.4,3.5-6c0.4-0.8,1-1.5,1.2-2.5c0.6-0.8,1-1.9,0.6-3.1
	c0.4-1.2-0.2-2.3-1.2-2.9C876.5,265.2,876.2,264.8,875.6,264.4L875.6,264.4z M792.9,288.5c1.5-8.3,5.8-16,11.9-21.6
	c1-0.8,1.9-1.5,3.1-2.1s2.1-1,3.3-1.2c2.1-0.6,4.4-0.6,6.6,0.2c1.9,1.3,3.7,3.3,4.6,5.6c-4,5-8.5,9.6-13.1,14.3
	c-4.8,4.6-9.8,8.9-15.2,12.9C792.7,294.1,792.3,291.4,792.9,288.5L792.9,288.5z M968.3,264.2c-1.3,0.6-2.3,1.5-2.9,2.7
	c-2.7,6-5.6,11.8-8.3,17.5c-2.9,5.6-5.6,10.8-8.3,15.6c-2.7,4.8-5.2,8.9-7.5,12.1c-1.9,2.7-3.9,5.4-6.2,7.7h-0.4
	c0-1,0.2-1.7,0.2-2.7s0.2-1.7,0.4-2.7c1-5.4,2.1-10.8,2.9-16.2c1-5.4,1.9-10.8,2.9-16.2c0.6-3.3,1-6.4,1.3-9.6
	c0.6-6.7-0.6-13.7-3.5-19.9c-1.2-2.7-3.3-4.8-6-5.8c-2.9-1-5.8-0.8-8.5,0.4c-2.7,1-5.2,2.3-7.5,4c-2.5,1.5-4.8,3.5-7.1,5.6
	c-2.1,2.1-4.2,4.4-6,6.7c-2.3,3.1-4.6,6.2-6.9,9.4c-2.3,3.3-4.6,6.6-6.9,9.6h-0.2c-0.2,0.4-0.4,0.8-0.8,1.2
	c-0.4,0.4-0.6,0.8-0.8,1.2c-0.6,0.8-1.2,1.7-1.5,2.5c-0.4,1-1,1.7-1.3,2.3s-0.8,1.2-1,1.7c-0.2,0.6-0.6,0.6-0.6,0.4v-29.1
	c0-2.1-0.2-4.2-0.6-6.4c-0.2-1.7-1-3.3-2.1-4.4c-1.2-1.2-2.5-1.9-4.2-2.1c-1.5-0.2-3.1,0.2-4.4,1.2s-2.5,2.3-3.1,3.9
	c-0.8,1.3-1.3,2.9-1.5,4.6c-1.5,7.1-2.3,14.5-2.1,21.8s1.2,14.6,3.1,21.8c0.4,1.3,0.8,2.5,1.3,3.9c0.6,1.2,1.2,2.3,2.1,3.5
	c1.5,2.5,4,4,6.9,4.4c2.9,0.2,5.8-0.8,7.7-2.9c1.9-1.9,3.7-4,5-6.4c1.5-2.3,2.9-4.8,4.2-7.3s2.7-5,4-7.3c2.5-4.4,5.2-8.5,7.9-12.7
	c2.9-4,6-8.1,9.3-11.8c0.6-0.4,1-0.8,1.3-1.2c0.4-0.4,1-1.2,1.9-1.9c-0.2,0.8-0.4,1.5-0.4,2.3c0,0.4-0.2,1-0.2,1.3
	c-2.3,7.5-3.9,15.2-4.8,22.9c-0.8,7.7-1,15.4-0.6,23.1c0,1.9,0.2,3.9,0.6,5.8c0.4,1.9,0.8,3.7,1.5,5.4c0.8,2.3,2.1,4.4,3.9,6.2
	c1.7,1.5,3.7,2.7,6,3.1c2.3,0.6,4.6,0.6,6.7,0c2.5-0.6,4.6-1.9,6.4-3.9c3.3-2.7,6.2-5.8,8.7-9.3c4.6-6.6,8.9-13.3,12.5-20.4
	c1.9-3.7,3.9-7.1,5.6-10.6c1.7-3.5,3.1-6.6,4.4-9.1l3.1-6.4c0.4-1,0.8-1.7,1.3-2.7c0.6-1.3,0.6-2.9,0-4.2s-1.5-2.3-2.7-2.9
	C971.2,263.8,969.6,263.8,968.3,264.2L968.3,264.2z M1061.2,264.2c-1.3-0.6-2.7-0.8-4.2-0.4c-1.3,0.4-2.5,1.2-3.3,2.5
	c-4,7.5-8.1,14.5-12.1,21.2c-4.2,6.7-8.1,12.5-11.9,17.5c-1.3,1.7-2.7,3.3-4,4.6c-1.3,1.3-2.7,3.1-4,4.6c-0.4,0.6-1,1-1.5,1.3
	l-1.9,1.3v-2.1c0-0.6,0.2-1.2,0.4-1.7c0.2-1.9,0.6-4,1-6c0.4-1.9,0.8-3.9,1.3-5.8c1.5-5,3.1-10,4.6-15.2s3.1-10,4.8-15
	c0.6-2.1,1.2-4.2,1.5-6.4s1-4.2,1.2-6.4c0.4-1.9,0.4-3.9-0.2-5.8c-0.8-2.7-3.1-4.8-5.8-5.2c-1.3-0.2-2.7,0-4,0.6
	c-1.2,0.6-2.1,1.5-2.9,2.7c-0.4,0.4-0.6,0.8-1,1.2c-0.2,0.4-0.4,0.6-0.6,1c-1.7-1.2-3.3-2.5-4.8-3.7s-3.1-2.3-4.8-3.3
	c-5.4-2.7-11.2-3.7-17.2-3.1c-5.8,0.8-11.4,3.3-15.8,7.3c-5.8,4.8-10.6,11-13.9,17.7c-3.3,6.7-5.2,14.1-5.6,21.4
	c-0.2,3.1,0,6.4,0.8,9.4c0.8,3.3,2.1,6.2,4,8.9c4.6,8.1,14.8,10.8,22.7,6.2c0.2-0.2,0.4-0.2,0.8-0.4c1.5-0.8,2.9-1.7,4.2-2.7
	s2.5-2.1,3.7-3.1c1.7-1.7,3.3-3.3,4.6-5l4.2-5c0.2-0.4,0.6-1,1-1.2c0.4-0.4,1-0.8,1.5-1.3c0,0.8,0,1.7-0.2,2.5
	c-0.2,0.6-0.2,1.2-0.4,1.9c-0.2,2.3-0.4,4.6-0.6,6.9c-0.2,2.3-0.4,4.6-0.4,6.7c0,2.9,0.6,5.8,1.5,8.5c0.8,2.3,1.9,4.4,3.7,6.2
	c1.5,1.5,3.5,2.7,5.4,3.3c2.1,0.6,4.2,0.6,6.4,0c2.3-0.8,4.4-1.9,6.2-3.5c2.1-2.1,4-4.4,5.8-6.9c1.3-1.9,2.9-4,4.2-6
	c1.3-1.9,2.9-4,4.2-6c1.2-1.7,2.3-3.3,3.7-5s2.5-3.7,3.9-5.8c2.1-3.3,4-6.6,6-9.6s3.5-6,5-8.5s2.5-4.4,3.3-6c0.4-0.8,1-1.5,1.2-2.5
	c0.6-0.8,1-1.9,0.6-3.1c0.4-1.2,0-2.3-1-2.9C1062.3,265.2,1061.8,264.8,1061.2,264.2L1061.2,264.2z M978.3,288.5
	c1.5-8.3,5.8-16,11.9-21.6c1-0.8,1.9-1.5,3.1-2.1s2.1-1,3.5-1.2c2.1-0.6,4.4-0.6,6.6,0.2c1.9,1.3,3.7,3.3,4.6,5.6
	c-4,5-8.5,9.6-13.1,14.3c-4.8,4.6-9.8,8.9-15.2,12.9C978.1,294.1,977.7,291.2,978.3,288.5L978.3,288.5z"/>
<rect x="381.4" y="477.7" class="st2" width="553.6" height="98.3"/>
<rect x="246" y="411.8" class="st2" width="811" height="115.1"/>
<g>
	<path class="st3" d="M414.7,414.6h4.7l-5.1,25.7c-0.7,3.4-2.1,6-4.3,7.7s-4.8,2.6-7.9,2.6c-3,0-5.3-0.9-6.9-2.6s-2.1-4.3-1.4-7.5
		l0.1-0.1h4.5c-0.5,2.3-0.3,4,0.5,5c0.8,1,2.1,1.5,4,1.5c1.5,0,2.9-0.6,4.2-1.8s2.1-2.8,2.6-4.8L414.7,414.6z"/>
	<path class="st3" d="M421,436.6c0.7-4.1,2.1-7.3,4.5-9.8c2.3-2.4,5.2-3.7,8.7-3.7c3.3,0,5.7,1.3,7.4,3.8c1.6,2.5,2.1,5.8,1.5,9.6
		l-0.1,0.5c-0.7,4.1-2.2,7.3-4.5,9.8c-2.3,2.4-5.2,3.6-8.7,3.6c-3.3,0-5.7-1.3-7.4-3.8s-2.1-5.7-1.5-9.6L421,436.6z M425.6,437.2
		c-0.5,2.9-0.3,5.2,0.4,7s2.2,2.6,4.3,2.6c2,0,3.7-0.9,5.1-2.8c1.4-1.8,2.3-4.1,2.8-6.9l0.1-0.5c0.5-2.9,0.3-5.2-0.5-7
		c-0.8-1.8-2.2-2.7-4.3-2.7c-2,0-3.7,0.9-5.1,2.8c-1.4,1.9-2.3,4.1-2.7,6.9L425.6,437.2z"/>
	<path class="st3" d="M451.3,450.1h-4.7l5.3-26.4h4.7L451.3,450.1z M457.9,416.9h-4.7l1-4.9h4.7L457.9,416.9z"/>
	<path class="st3" d="M467.4,427.3c1.1-1.3,2.3-2.4,3.6-3.1c1.4-0.7,2.8-1.1,4.4-1.1c2.5,0,4.3,0.8,5.5,2.5c1.2,1.7,1.5,4.3,0.8,7.7
		l-3.3,16.7h-4.7l3.3-16.6c0.5-2.5,0.4-4.2-0.2-5.1c-0.6-0.9-1.8-1.4-3.6-1.4c-1.1,0-2.3,0.3-3.4,1c-1.1,0.7-2.1,1.6-3,2.8
		l-3.8,19.2h-4.7l5.3-26.4h4.2L467.4,427.3z"/>
	<path class="st3" d="M506,427.3c1.1-1.3,2.3-2.4,3.6-3.1c1.4-0.7,2.8-1.1,4.4-1.1c2.5,0,4.3,0.8,5.5,2.5c1.2,1.7,1.5,4.3,0.8,7.7
		l-3.3,16.7h-4.7l3.3-16.6c0.5-2.5,0.4-4.2-0.2-5.1c-0.6-0.9-1.8-1.4-3.6-1.4c-1.1,0-2.3,0.3-3.4,1c-1.1,0.7-2.1,1.6-3,2.8
		l-3.8,19.2h-4.7l5.3-26.4h4.2L506,427.3z"/>
	<path class="st3" d="M525.2,436.6c0.7-4.1,2.1-7.3,4.5-9.8c2.3-2.4,5.2-3.7,8.7-3.7c3.3,0,5.7,1.3,7.4,3.8c1.6,2.5,2.1,5.8,1.5,9.6
		l-0.1,0.5c-0.7,4.1-2.2,7.3-4.5,9.8c-2.3,2.4-5.2,3.6-8.7,3.6c-3.3,0-5.7-1.3-7.4-3.8s-2.1-5.7-1.5-9.6L525.2,436.6z M529.8,437.2
		c-0.5,2.9-0.3,5.2,0.4,7s2.2,2.6,4.3,2.6c2,0,3.7-0.9,5.1-2.8c1.4-1.8,2.3-4.1,2.8-6.9l0.1-0.5c0.5-2.9,0.3-5.2-0.5-7
		c-0.8-1.8-2.2-2.7-4.3-2.7c-2,0-3.7,0.9-5.1,2.8c-1.4,1.9-2.3,4.1-2.7,6.9L529.8,437.2z"/>
	<path class="st3" d="M558.8,440.5l-0.1,2.8l0.1,0l1.1-2.9l8.2-16.8h3.8l1.5,16.8l0,3.3l0.1,0l1.3-3.3l7.1-16.8h4.7l-12.4,26.4h-3.8
		L569,434l-0.1-4.3l-0.1,0l-1.8,4.3l-7.8,16.1h-3.8l-1.9-26.4h4.7L558.8,440.5z"/>
	<path class="st3" d="M610.5,417.3l-1.3,6.4h4.6l-0.7,3.6h-4.6l-3.2,16c-0.3,1.3-0.2,2.2,0.1,2.7c0.4,0.5,0.9,0.7,1.7,0.7
		c0.4,0,0.8,0,1.4-0.1c0.5-0.1,0.9-0.1,1.3-0.2l0,3.3c-0.5,0.3-1.1,0.5-2,0.7c-0.9,0.2-1.7,0.3-2.6,0.3c-1.7,0-3-0.6-3.9-1.8
		c-0.9-1.2-1.1-3-0.6-5.5l3.2-16H600l0.7-3.6h3.9l1.3-6.4H610.5z"/>
	<path class="st3" d="M623.8,426.9c1.1-1.2,2.3-2.1,3.6-2.7c1.3-0.6,2.7-1,4.2-1c2.5,0,4.3,0.9,5.5,2.6c1.2,1.7,1.5,4.3,0.8,7.8
		l-3.3,16.6h-4.7l3.3-16.6c0.5-2.3,0.4-4-0.3-4.9s-1.8-1.5-3.6-1.5c-1.1,0-2.2,0.3-3.3,1c-1.1,0.6-2.1,1.5-3,2.6l-3.9,19.5h-4.7
		L622,412h4.7L623.8,426.9z"/>
	<path class="st3" d="M651.8,450.6c-3.3,0-5.8-1.2-7.5-3.7c-1.7-2.5-2.2-5.6-1.6-9.5l0.2-1.1c0.6-3.9,2.2-7.1,4.6-9.5
		c2.5-2.4,5.1-3.6,8-3.6c3.2,0,5.6,1.1,7,3.3c1.4,2.2,1.8,5,1.3,8.6l-0.5,3h-15.9c-0.4,2.7-0.1,4.8,0.7,6.4c0.9,1.6,2.3,2.4,4.4,2.4
		c1.4,0,2.8-0.2,4-0.7c1.3-0.5,2.3-1.1,3.3-1.9l1.3,3.1c-1,0.9-2.3,1.7-3.8,2.3C655.7,450.3,653.9,450.6,651.8,450.6z M654.8,427
		c-1.4,0-2.7,0.7-4,2.1c-1.3,1.4-2.2,3.1-2.7,5.1l0.1,0.1h10.9l0.1-0.6c0.3-2,0.1-3.6-0.6-4.8C657.9,427.6,656.7,427,654.8,427z"/>
	<path class="st3" d="M692.7,432.1l0.1,0l11.9-17.5h5.3l-16.1,23l-2.5,12.5h-4.7l2.6-12.8l-6.8-22.7h5.4L692.7,432.1z"/>
	<path class="st3" d="M721.4,443.1c0.2-1.1,0-2-0.7-2.6c-0.6-0.7-1.9-1.2-3.9-1.8c-2.9-0.7-5-1.7-6.3-2.9c-1.3-1.2-1.8-2.8-1.5-4.9
		c0.4-2.2,1.5-4.1,3.4-5.6c1.9-1.5,4.3-2.2,7.1-2.2c2.8,0,4.9,0.8,6.4,2.4c1.5,1.6,2,3.5,1.6,5.7l-0.1,0.1H723
		c0.2-1.2-0.1-2.2-0.8-3.1c-0.7-0.9-1.8-1.4-3.2-1.4c-1.5,0-2.7,0.4-3.6,1.1c-0.9,0.8-1.4,1.7-1.6,2.7c-0.2,1.1,0,1.9,0.6,2.5
		c0.6,0.6,1.8,1.1,3.8,1.6c3,0.7,5.2,1.7,6.5,2.9s1.8,2.9,1.5,4.9c-0.4,2.4-1.6,4.3-3.6,5.7c-2,1.4-4.4,2.1-7.3,2.1
		c-3,0-5.3-0.9-6.9-2.6c-1.6-1.7-2.2-3.7-1.7-6l0-0.1h4.5c-0.2,1.7,0.2,2.9,1.1,3.7c0.9,0.8,2.1,1.2,3.6,1.2c1.5,0,2.7-0.3,3.7-1
		C720.6,445.1,721.2,444.2,721.4,443.1z"/>
	<path class="st3" d="M745.4,450.1c0-0.8,0-1.5,0-2c0-0.5,0.1-1,0.2-1.6c-1.1,1.2-2.3,2.1-3.7,2.9c-1.4,0.8-2.8,1.2-4.2,1.2
		c-2.4,0-4.2-0.7-5.3-2.2c-1.1-1.4-1.5-3.4-1-5.8c0.5-2.7,1.8-4.7,4-6c2.1-1.3,4.8-2,8.2-2h4.5l0.5-2.6c0.3-1.6,0.1-2.9-0.5-3.7
		c-0.7-0.9-1.8-1.3-3.4-1.3c-1.4,0-2.6,0.4-3.7,1.2c-1.1,0.8-1.8,1.7-2,2.8h-4.5l0-0.1c0.3-2,1.5-3.8,3.7-5.4
		c2.1-1.5,4.6-2.3,7.6-2.3c2.6,0,4.7,0.8,6.2,2.3c1.5,1.6,2,3.7,1.5,6.5l-2.5,12.7c-0.2,1-0.4,1.9-0.4,2.8c-0.1,0.8-0.1,1.7,0,2.6
		H745.4z M739.1,446.6c1.3,0,2.7-0.4,4-1.1c1.4-0.8,2.4-1.7,3.2-2.7l1-4.9h-4.7c-1.6,0-3.1,0.5-4.3,1.5c-1.3,1-2.1,2.1-2.3,3.4
		c-0.3,1.3-0.1,2.2,0.4,2.8C736.9,446.3,737.8,446.6,739.1,446.6z"/>
	<path class="st3" d="M765.3,427.3c1.1-1.3,2.3-2.4,3.6-3.1c1.4-0.7,2.8-1.1,4.4-1.1c2.5,0,4.3,0.8,5.5,2.5c1.2,1.7,1.5,4.3,0.8,7.7
		l-3.3,16.7h-4.7l3.3-16.6c0.5-2.5,0.4-4.2-0.2-5.1c-0.6-0.9-1.8-1.4-3.6-1.4c-1.1,0-2.3,0.3-3.4,1c-1.1,0.7-2.1,1.6-3,2.8
		l-3.8,19.2h-4.7l5.3-26.4h4.2L765.3,427.3z"/>
	<path class="st3" d="M798,450.1c0-0.8,0-1.5,0-2c0-0.5,0.1-1,0.2-1.6c-1.1,1.2-2.3,2.1-3.7,2.9c-1.4,0.8-2.8,1.2-4.2,1.2
		c-2.4,0-4.2-0.7-5.3-2.2c-1.1-1.4-1.5-3.4-1-5.8c0.5-2.7,1.8-4.7,4-6c2.1-1.3,4.8-2,8.2-2h4.5l0.5-2.6c0.3-1.6,0.1-2.9-0.5-3.7
		c-0.7-0.9-1.8-1.3-3.4-1.3c-1.4,0-2.6,0.4-3.7,1.2c-1.1,0.8-1.8,1.7-2,2.8H787l0-0.1c0.3-2,1.5-3.8,3.7-5.4
		c2.1-1.5,4.6-2.3,7.6-2.3c2.6,0,4.7,0.8,6.2,2.3c1.5,1.6,2,3.7,1.5,6.5l-2.5,12.7c-0.2,1-0.4,1.9-0.4,2.8c-0.1,0.8-0.1,1.7,0,2.6
		H798z M791.8,446.6c1.3,0,2.7-0.4,4-1.1c1.4-0.8,2.4-1.7,3.2-2.7l1-4.9h-4.7c-1.6,0-3.1,0.5-4.3,1.5c-1.3,1-2.1,2.1-2.3,3.4
		c-0.3,1.3-0.1,2.2,0.4,2.8C789.5,446.3,790.4,446.6,791.8,446.6z"/>
	<path class="st3" d="M847.1,439.2l0,0.1c-1,3.5-2.6,6.2-4.8,8.3c-2.2,2-5.1,3-8.7,3c-3.6,0-6.4-1.5-8.6-4.5c-2.2-3-2.8-6.6-2-10.9
		l1.3-6.3c0.9-4.7,2.7-8.4,5.3-11c2.6-2.6,5.8-3.9,9.5-3.9c3.5,0,6.3,1.1,8.3,3.4c2,2.2,2.8,5.1,2.4,8.6l0,0.1h-4.6
		c0.2-2.6-0.3-4.6-1.4-6.1c-1.1-1.5-2.8-2.2-5.2-2.2c-2.2,0-4.2,1-6,3.1c-1.7,2.1-2.9,4.7-3.6,7.9l-1.3,6.4
		c-0.7,3.4-0.4,6.2,0.8,8.3c1.2,2.2,3.1,3.2,5.6,3.2c2.2,0,3.9-0.6,5.2-1.8c1.3-1.2,2.4-3.2,3.2-5.8H847.1z"/>
	<path class="st3" d="M855.4,450.1h-4.7l7.6-38.1h4.7L855.4,450.1z"/>
	<path class="st3" d="M878.3,450.1l0.4-3.6c-1,1.4-2.2,2.4-3.6,3.1c-1.3,0.7-2.8,1-4.4,1c-2.5,0-4.4-0.9-5.6-2.8
		c-1.2-1.9-1.4-4.7-0.7-8.5l3.1-15.6h4.7l-3.1,15.6c-0.6,3-0.6,5-0.1,5.9c0.5,1,1.6,1.5,3.2,1.5c1.4,0,2.8-0.4,3.9-1.1
		c1.2-0.7,2.2-1.7,3-3l3.8-19h4.7l-5.3,26.4H878.3z"/>
	<path class="st3" d="M912.7,438.4c-0.8,4.1-2.2,7.1-4.1,9.2c-1.9,2.1-4.4,3.1-7.5,3.1c-1.4,0-2.7-0.4-3.8-1.2
		c-1.2-0.8-2.1-1.8-2.8-3.2l-1.2,3.9h-4.1l7.6-38.1h4.7l-2.8,14.1c0.9-0.9,2-1.6,3.1-2.1c1.2-0.5,2.4-0.7,3.8-0.7
		c2.8,0,5,1.4,6.3,4.2c1.4,2.8,1.7,6.3,0.8,10.4L912.7,438.4z M908.1,437.9c0.6-3.2,0.6-5.8-0.2-7.8c-0.7-2-2.2-3-4.3-3
		c-1.2,0-2.3,0.4-3.3,1.1c-1,0.7-1.9,1.8-2.7,3l-2.3,11.7c0.4,1.2,1,2.1,1.9,2.8c0.9,0.7,2,1,3.4,1c1.9,0,3.5-0.7,4.7-2.2
		c1.2-1.5,2.1-3.5,2.6-6.1L908.1,437.9z"/>
	<path class="st3" d="M294.1,510.1c0-0.8,0-1.5,0-2c0-0.5,0.1-1,0.2-1.6c-1.1,1.2-2.3,2.1-3.7,2.9c-1.4,0.8-2.8,1.2-4.2,1.2
		c-2.4,0-4.2-0.7-5.3-2.2c-1.1-1.4-1.5-3.4-1-5.8c0.5-2.7,1.8-4.7,4-6c2.1-1.3,4.8-2,8.2-2h4.5l0.5-2.6c0.3-1.6,0.1-2.9-0.5-3.7
		c-0.7-0.9-1.8-1.3-3.4-1.3c-1.4,0-2.6,0.4-3.7,1.2c-1.1,0.8-1.8,1.7-2,2.8h-4.5l0-0.1c0.3-2,1.5-3.8,3.7-5.4
		c2.1-1.5,4.6-2.3,7.6-2.3c2.6,0,4.7,0.8,6.2,2.3c1.5,1.6,2,3.7,1.5,6.5l-2.5,12.7c-0.2,1-0.4,1.9-0.4,2.8c-0.1,0.8-0.1,1.7,0,2.6
		H294.1z M287.9,506.6c1.3,0,2.7-0.4,4-1.1c1.4-0.8,2.4-1.7,3.2-2.7l1-4.9h-4.7c-1.6,0-3.1,0.5-4.3,1.5c-1.3,1-2.1,2.1-2.3,3.4
		c-0.3,1.3-0.1,2.2,0.4,2.8C285.6,506.3,286.5,506.6,287.9,506.6z"/>
	<path class="st3" d="M314,487.3c1.1-1.3,2.3-2.4,3.6-3.1c1.4-0.7,2.8-1.1,4.4-1.1c2.5,0,4.3,0.8,5.5,2.5c1.2,1.7,1.5,4.3,0.8,7.7
		l-3.3,16.7h-4.7l3.3-16.6c0.5-2.5,0.4-4.2-0.2-5.1c-0.6-0.9-1.8-1.4-3.6-1.4c-1.1,0-2.3,0.3-3.4,1c-1.1,0.7-2.1,1.6-3,2.8
		l-3.8,19.2H305l5.3-26.4h4.2L314,487.3z"/>
	<path class="st3" d="M333.3,496.9c0.9-4.5,2.3-8,4.3-10.3s4.5-3.4,7.6-3.4c1.4,0,2.6,0.3,3.7,0.8c1.1,0.6,2,1.4,2.7,2.4l2.9-14.4
		h4.7l-7.6,38.1h-4.1l0.2-2.5c-1,1-2.1,1.8-3.2,2.3c-1.2,0.5-2.5,0.8-3.8,0.8c-2.8,0-5-1.3-6.4-3.8s-1.8-5.7-1-9.4L333.3,496.9z
		 M338,497.4c-0.6,2.8-0.5,5,0.3,6.8c0.8,1.7,2.2,2.6,4.4,2.6c1.2,0,2.2-0.3,3.1-1c0.9-0.6,1.8-1.6,2.5-2.7l2.5-12.5
		c-0.4-1-1.1-1.9-1.9-2.5c-0.9-0.6-1.9-0.9-3.2-0.9c-2,0-3.6,0.9-4.8,2.6c-1.3,1.8-2.2,4.1-2.8,7.1L338,497.4z"/>
	<path class="st3" d="M381.3,506.8c1.4,0,2.7-0.5,4-1.5c1.3-1,2-2.2,2.3-3.6h4.2l0,0.1c-0.3,2.4-1.6,4.4-3.8,6.1
		c-2.2,1.7-4.7,2.6-7.3,2.6c-3.5,0-6-1.3-7.5-3.8c-1.6-2.5-2.1-5.7-1.5-9.4l0.2-1c0.6-3.9,2-7.1,4.3-9.5c2.3-2.4,5.2-3.7,8.9-3.7
		c2.8,0,5,0.9,6.6,2.7c1.6,1.8,2.1,4.1,1.6,6.7l0,0.1H389c0.3-1.7,0-3.1-0.8-4.2c-0.8-1.1-2.1-1.6-3.7-1.6c-2.2,0-4,0.9-5.3,2.8
		c-1.3,1.8-2.2,4-2.6,6.6l-0.2,1c-0.4,2.8-0.3,5.1,0.3,6.8C377.4,506,379,506.8,381.3,506.8z"/>
	<path class="st3" d="M396.8,496.6c0.7-4.1,2.1-7.3,4.5-9.8c2.3-2.4,5.2-3.7,8.7-3.7c3.3,0,5.7,1.3,7.4,3.8c1.6,2.5,2.1,5.8,1.5,9.6
		l-0.1,0.5c-0.7,4.1-2.2,7.3-4.5,9.8c-2.3,2.4-5.2,3.6-8.7,3.6c-3.3,0-5.7-1.3-7.4-3.8s-2.1-5.7-1.5-9.6L396.8,496.6z M401.5,497.2
		c-0.5,2.9-0.3,5.2,0.4,7s2.2,2.6,4.3,2.6c2,0,3.7-0.9,5.1-2.8c1.4-1.8,2.3-4.1,2.8-6.9l0.1-0.5c0.5-2.9,0.3-5.2-0.5-7
		c-0.8-1.8-2.2-2.7-4.3-2.7c-2,0-3.7,0.9-5.1,2.8c-1.4,1.9-2.3,4.1-2.7,6.9L401.5,497.2z"/>
	<path class="st3" d="M431.1,487.3c1.1-1.3,2.3-2.4,3.6-3.1c1.4-0.7,2.8-1.1,4.4-1.1c2.5,0,4.3,0.8,5.5,2.5c1.2,1.7,1.5,4.3,0.8,7.7
		l-3.3,16.7h-4.7l3.3-16.6c0.5-2.5,0.4-4.2-0.2-5.1c-0.6-0.9-1.8-1.4-3.6-1.4c-1.1,0-2.3,0.3-3.4,1c-1.1,0.7-2.1,1.6-3,2.8
		l-3.8,19.2h-4.7l5.3-26.4h4.2L431.1,487.3z"/>
	<path class="st3" d="M457.9,487.3c1.1-1.3,2.3-2.4,3.6-3.1c1.4-0.7,2.8-1.1,4.4-1.1c2.5,0,4.3,0.8,5.5,2.5c1.2,1.7,1.5,4.3,0.8,7.7
		l-3.3,16.7h-4.7l3.3-16.6c0.5-2.5,0.4-4.2-0.2-5.1c-0.6-0.9-1.8-1.4-3.6-1.4c-1.1,0-2.3,0.3-3.4,1c-1.1,0.7-2.1,1.6-3,2.8
		l-3.8,19.2h-4.7l5.3-26.4h4.2L457.9,487.3z"/>
	<path class="st3" d="M486.2,510.6c-3.3,0-5.8-1.2-7.5-3.7c-1.7-2.5-2.2-5.6-1.6-9.5l0.2-1.1c0.6-3.9,2.2-7.1,4.6-9.5
		c2.5-2.4,5.1-3.6,8-3.6c3.2,0,5.6,1.1,7,3.3c1.4,2.2,1.8,5,1.3,8.6l-0.5,3h-15.9c-0.4,2.7-0.1,4.8,0.7,6.4c0.9,1.6,2.3,2.4,4.4,2.4
		c1.4,0,2.8-0.2,4-0.7c1.3-0.5,2.3-1.1,3.3-1.9l1.3,3.1c-1,0.9-2.3,1.7-3.8,2.3C490.1,510.3,488.3,510.6,486.2,510.6z M489.3,487
		c-1.4,0-2.7,0.7-4,2.1c-1.3,1.4-2.2,3.1-2.7,5.1l0.1,0.1h10.9l0.1-0.6c0.3-2,0.1-3.6-0.6-4.8C492.3,487.6,491.1,487,489.3,487z"/>
	<path class="st3" d="M511.5,506.8c1.4,0,2.7-0.5,4-1.5c1.3-1,2-2.2,2.3-3.6h4.2l0,0.1c-0.3,2.4-1.6,4.4-3.8,6.1
		c-2.2,1.7-4.7,2.6-7.3,2.6c-3.5,0-6-1.3-7.5-3.8c-1.6-2.5-2.1-5.7-1.5-9.4l0.2-1c0.6-3.9,2-7.1,4.3-9.5c2.3-2.4,5.2-3.7,8.9-3.7
		c2.8,0,5,0.9,6.6,2.7c1.6,1.8,2.1,4.1,1.6,6.7l0,0.1h-4.3c0.3-1.7,0-3.1-0.8-4.2c-0.8-1.1-2.1-1.6-3.7-1.6c-2.2,0-4,0.9-5.3,2.8
		c-1.3,1.8-2.2,4-2.6,6.6l-0.2,1c-0.4,2.8-0.3,5.1,0.3,6.8C507.6,506,509.2,506.8,511.5,506.8z"/>
	<path class="st3" d="M538.3,477.3l-1.3,6.4h4.6l-0.7,3.6h-4.6l-3.2,16c-0.3,1.3-0.2,2.2,0.1,2.7c0.4,0.5,0.9,0.7,1.7,0.7
		c0.4,0,0.8,0,1.4-0.1c0.5-0.1,0.9-0.1,1.3-0.2l0,3.3c-0.5,0.3-1.1,0.5-2,0.7c-0.9,0.2-1.7,0.3-2.6,0.3c-1.7,0-3-0.6-3.9-1.8
		c-0.9-1.2-1.1-3-0.6-5.5l3.2-16h-3.9l0.7-3.6h3.9l1.3-6.4H538.3z"/>
	<path class="st3" d="M562.4,500.5l-0.1,2.8l0.1,0l1.1-2.9l8.2-16.8h3.8l1.5,16.8l0,3.3l0.1,0l1.3-3.3l7.1-16.8h4.7l-12.4,26.4h-3.8
		l-1.4-16.1l-0.1-4.3l-0.1,0l-1.8,4.3l-7.8,16.1h-3.8l-1.9-26.4h4.7L562.4,500.5z"/>
	<path class="st3" d="M594.6,510.1h-4.7l5.3-26.4h4.7L594.6,510.1z M601.2,476.9h-4.7l1-4.9h4.7L601.2,476.9z"/>
	<path class="st3" d="M614.4,477.3l-1.3,6.4h4.6l-0.7,3.6h-4.6l-3.2,16c-0.3,1.3-0.2,2.2,0.1,2.7c0.4,0.5,0.9,0.7,1.7,0.7
		c0.4,0,0.8,0,1.4-0.1c0.5-0.1,0.9-0.1,1.3-0.2l0,3.3c-0.5,0.3-1.1,0.5-2,0.7c-0.9,0.2-1.7,0.3-2.6,0.3c-1.7,0-3-0.6-3.9-1.8
		c-0.9-1.2-1.1-3-0.6-5.5l3.2-16h-3.9l0.7-3.6h3.9l1.3-6.4H614.4z"/>
	<path class="st3" d="M627.7,486.9c1.1-1.2,2.3-2.1,3.6-2.7c1.3-0.6,2.7-1,4.2-1c2.5,0,4.3,0.9,5.5,2.6c1.2,1.7,1.5,4.3,0.8,7.8
		l-3.3,16.6h-4.7l3.3-16.6c0.5-2.3,0.4-4-0.3-4.9s-1.8-1.5-3.6-1.5c-1.1,0-2.2,0.3-3.3,1c-1.1,0.6-2.1,1.5-3,2.6l-3.9,19.5h-4.7
		l7.6-38.1h4.7L627.7,486.9z"/>
	<path class="st3" d="M671.9,510.1c0-0.8,0-1.5,0-2c0-0.5,0.1-1,0.2-1.6c-1.1,1.2-2.3,2.1-3.7,2.9c-1.4,0.8-2.8,1.2-4.2,1.2
		c-2.4,0-4.2-0.7-5.3-2.2c-1.1-1.4-1.5-3.4-1-5.8c0.5-2.7,1.8-4.7,4-6c2.1-1.3,4.8-2,8.2-2h4.5l0.5-2.6c0.3-1.6,0.1-2.9-0.5-3.7
		c-0.7-0.9-1.8-1.3-3.4-1.3c-1.4,0-2.6,0.4-3.7,1.2c-1.1,0.8-1.8,1.7-2,2.8h-4.5l0-0.1c0.3-2,1.5-3.8,3.7-5.4
		c2.1-1.5,4.6-2.3,7.6-2.3c2.6,0,4.7,0.8,6.2,2.3c1.5,1.6,2,3.7,1.5,6.5l-2.5,12.7c-0.2,1-0.4,1.9-0.4,2.8c-0.1,0.8-0.1,1.7,0,2.6
		H671.9z M665.7,506.6c1.3,0,2.7-0.4,4-1.1c1.4-0.8,2.4-1.7,3.2-2.7l1-4.9h-4.7c-1.6,0-3.1,0.5-4.3,1.5c-1.3,1-2.1,2.1-2.3,3.4
		c-0.3,1.3-0.1,2.2,0.4,2.8C663.4,506.3,664.4,506.6,665.7,506.6z"/>
	<path class="st3" d="M704,486.9c1.1-1.2,2.3-2.1,3.6-2.7c1.3-0.6,2.7-1,4.2-1c2.5,0,4.3,0.9,5.5,2.6c1.2,1.7,1.5,4.3,0.8,7.8
		l-3.3,16.6h-4.7l3.3-16.6c0.5-2.3,0.4-4-0.3-4.9s-1.8-1.5-3.6-1.5c-1.1,0-2.2,0.3-3.3,1c-1.1,0.6-2.1,1.5-3,2.6l-3.9,19.5h-4.7
		l7.6-38.1h4.7L704,486.9z"/>
	<path class="st3" d="M732,510.6c-3.3,0-5.8-1.2-7.5-3.7c-1.7-2.5-2.2-5.6-1.6-9.5l0.2-1.1c0.6-3.9,2.2-7.1,4.6-9.5
		c2.5-2.4,5.1-3.6,8-3.6c3.2,0,5.6,1.1,7,3.3c1.4,2.2,1.8,5,1.3,8.6l-0.5,3h-15.9c-0.4,2.7-0.1,4.8,0.7,6.4c0.9,1.6,2.3,2.4,4.4,2.4
		c1.4,0,2.8-0.2,4-0.7c1.3-0.5,2.3-1.1,3.3-1.9l1.3,3.1c-1,0.9-2.3,1.7-3.8,2.3C735.9,510.3,734.1,510.6,732,510.6z M735.1,487
		c-1.4,0-2.7,0.7-4,2.1c-1.3,1.4-2.2,3.1-2.7,5.1l0.1,0.1h10.9l0.1-0.6c0.3-2,0.1-3.6-0.6-4.8C738.1,487.6,736.9,487,735.1,487z"/>
	<path class="st3" d="M761.3,510.1c0-0.8,0-1.5,0-2c0-0.5,0.1-1,0.2-1.6c-1.1,1.2-2.3,2.1-3.7,2.9c-1.4,0.8-2.8,1.2-4.2,1.2
		c-2.4,0-4.2-0.7-5.3-2.2c-1.1-1.4-1.5-3.4-1-5.8c0.5-2.7,1.8-4.7,4-6c2.1-1.3,4.8-2,8.2-2h4.5l0.5-2.6c0.3-1.6,0.1-2.9-0.5-3.7
		c-0.7-0.9-1.8-1.3-3.4-1.3c-1.4,0-2.6,0.4-3.7,1.2c-1.1,0.8-1.8,1.7-2,2.8h-4.5l0-0.1c0.3-2,1.5-3.8,3.7-5.4
		c2.1-1.5,4.6-2.3,7.6-2.3c2.6,0,4.7,0.8,6.2,2.3c1.5,1.6,2,3.7,1.5,6.5l-2.5,12.7c-0.2,1-0.4,1.9-0.4,2.8c-0.1,0.8-0.1,1.7,0,2.6
		H761.3z M755.1,506.6c1.3,0,2.7-0.4,4-1.1c1.4-0.8,2.4-1.7,3.2-2.7l1-4.9h-4.7c-1.6,0-3.1,0.5-4.3,1.5c-1.3,1-2.1,2.1-2.3,3.4
		c-0.3,1.3-0.1,2.2,0.4,2.8C752.8,506.3,753.8,506.6,755.1,506.6z"/>
	<path class="st3" d="M777.3,510.1h-4.7l7.6-38.1h4.7L777.3,510.1z"/>
	<path class="st3" d="M797.1,477.3l-1.3,6.4h4.6l-0.7,3.6h-4.6l-3.2,16c-0.3,1.3-0.2,2.2,0.1,2.7c0.4,0.5,0.9,0.7,1.7,0.7
		c0.4,0,0.8,0,1.4-0.1c0.5-0.1,0.9-0.1,1.3-0.2l0,3.3c-0.5,0.3-1.1,0.5-2,0.7c-0.9,0.2-1.7,0.3-2.6,0.3c-1.7,0-3-0.6-3.9-1.8
		c-0.9-1.2-1.1-3-0.6-5.5l3.2-16h-3.9l0.7-3.6h3.9l1.3-6.4H797.1z"/>
	<path class="st3" d="M810.3,486.9c1.1-1.2,2.3-2.1,3.6-2.7c1.3-0.6,2.7-1,4.2-1c2.5,0,4.3,0.9,5.5,2.6c1.2,1.7,1.5,4.3,0.8,7.8
		l-3.3,16.6h-4.7l3.3-16.6c0.5-2.3,0.4-4-0.3-4.9s-1.8-1.5-3.6-1.5c-1.1,0-2.2,0.3-3.3,1c-1.1,0.6-2.1,1.5-3,2.6l-3.9,19.5H801
		l7.6-38.1h4.7L810.3,486.9z"/>
	<path class="st3" d="M837.3,500.3l0.1,3l0.1,0l9.8-19.7h5.2l-16.4,30.5c-1,1.8-2.2,3.3-3.7,4.6c-1.4,1.3-3.1,2-5.1,2
		c-0.3,0-0.8,0-1.4-0.1c-0.6-0.1-1-0.2-1.3-0.3l1.2-3.8c-0.2,0,0,0,0.7,0s1.1,0.1,1.3,0.1c0.8,0,1.7-0.5,2.6-1.5
		c0.9-1,1.5-2,2.1-2.9l1.6-2.8l-3.9-25.9h5.3L837.3,500.3z"/>
	<path class="st3" d="M868.4,510.1h-4.7l7.6-38.1h4.7L868.4,510.1z"/>
	<path class="st3" d="M880.5,510.1h-4.7l5.3-26.4h4.7L880.5,510.1z M887.2,476.9h-4.7l1-4.9h4.7L887.2,476.9z"/>
	<path class="st3" d="M889.6,510.1l4.6-22.9h-3.8l0.7-3.6h3.8l0.7-3.3c0.6-3,1.7-5.2,3.4-6.7c1.7-1.4,3.7-2.2,6.3-2.2
		c0.5,0,1,0,1.5,0.1c0.5,0.1,1.1,0.2,1.7,0.4l-1.3,3.7c-0.3-0.1-0.6-0.1-1-0.2c-0.4,0-0.8-0.1-1.2-0.1c-1.2,0-2.2,0.4-3,1.3
		c-0.8,0.9-1.4,2.1-1.7,3.6l-0.7,3.3h5l-0.7,3.6h-5l-4.6,22.9H889.6z"/>
	<path class="st3" d="M914,510.6c-3.3,0-5.8-1.2-7.5-3.7c-1.7-2.5-2.2-5.6-1.6-9.5l0.2-1.1c0.6-3.9,2.2-7.1,4.6-9.5
		c2.5-2.4,5.1-3.6,8-3.6c3.2,0,5.6,1.1,7,3.3c1.4,2.2,1.8,5,1.3,8.6l-0.5,3h-15.9c-0.4,2.7-0.1,4.8,0.7,6.4c0.9,1.6,2.3,2.4,4.4,2.4
		c1.4,0,2.8-0.2,4-0.7c1.3-0.5,2.3-1.1,3.3-1.9l1.3,3.1c-1,0.9-2.3,1.7-3.8,2.3C917.9,510.3,916.1,510.6,914,510.6z M917,487
		c-1.4,0-2.7,0.7-4,2.1c-1.3,1.4-2.2,3.1-2.7,5.1l0.1,0.1h10.9l0.1-0.6c0.3-2,0.1-3.6-0.6-4.8C920.1,487.6,918.9,487,917,487z"/>
	<path class="st3" d="M944,503.1c0.2-1.1,0-2-0.7-2.6c-0.6-0.7-1.9-1.2-3.9-1.8c-2.9-0.7-5-1.7-6.3-2.9c-1.3-1.2-1.8-2.8-1.5-4.9
		c0.4-2.2,1.5-4.1,3.4-5.6c1.9-1.5,4.3-2.2,7.1-2.2c2.8,0,4.9,0.8,6.4,2.4c1.5,1.6,2,3.5,1.6,5.7l-0.1,0.1h-4.5
		c0.2-1.2-0.1-2.2-0.8-3.1c-0.7-0.9-1.8-1.4-3.2-1.4c-1.5,0-2.7,0.4-3.6,1.1c-0.9,0.8-1.4,1.7-1.6,2.7c-0.2,1.1,0,1.9,0.6,2.5
		c0.6,0.6,1.8,1.1,3.8,1.6c3,0.7,5.2,1.7,6.5,2.9s1.8,2.9,1.5,4.9c-0.4,2.4-1.6,4.3-3.6,5.7c-2,1.4-4.4,2.1-7.3,2.1
		c-3,0-5.3-0.9-6.9-2.6c-1.6-1.7-2.2-3.7-1.7-6l0-0.1h4.5c-0.2,1.7,0.2,2.9,1.1,3.7c0.9,0.8,2.1,1.2,3.6,1.2c1.5,0,2.7-0.3,3.7-1
		C943.2,505.1,943.8,504.2,944,503.1z"/>
	<path class="st3" d="M965.8,477.3l-1.3,6.4h4.6l-0.7,3.6h-4.6l-3.2,16c-0.3,1.3-0.2,2.2,0.1,2.7c0.4,0.5,0.9,0.7,1.7,0.7
		c0.4,0,0.8,0,1.4-0.1c0.5-0.1,0.9-0.1,1.3-0.2l0,3.3c-0.5,0.3-1.1,0.5-2,0.7c-0.9,0.2-1.7,0.3-2.6,0.3c-1.7,0-3-0.6-3.9-1.8
		c-0.9-1.2-1.1-3-0.6-5.5l3.2-16h-3.9l0.7-3.6h3.9l1.3-6.4H965.8z"/>
	<path class="st3" d="M979.2,500.3l0.1,3l0.1,0l9.8-19.7h5.2l-16.4,30.5c-1,1.8-2.2,3.3-3.7,4.6c-1.4,1.3-3.1,2-5.1,2
		c-0.3,0-0.8,0-1.4-0.1c-0.6-0.1-1-0.2-1.3-0.3l1.2-3.8c-0.2,0,0,0,0.7,0s1.1,0.1,1.3,0.1c0.8,0,1.7-0.5,2.6-1.5
		c0.9-1,1.5-2,2.1-2.9l1.6-2.8l-3.9-25.9h5.3L979.2,500.3z"/>
	<path class="st3" d="M998.5,510.1h-4.7l7.6-38.1h4.7L998.5,510.1z"/>
	<path class="st3" d="M1016.1,510.6c-3.3,0-5.8-1.2-7.5-3.7c-1.7-2.5-2.2-5.6-1.6-9.5l0.2-1.1c0.6-3.9,2.2-7.1,4.6-9.5
		c2.5-2.4,5.1-3.6,8-3.6c3.2,0,5.6,1.1,7,3.3c1.4,2.2,1.8,5,1.3,8.6l-0.5,3h-15.9c-0.4,2.7-0.1,4.8,0.7,6.4c0.9,1.6,2.3,2.4,4.4,2.4
		c1.4,0,2.8-0.2,4-0.7c1.3-0.5,2.3-1.1,3.3-1.9l1.3,3.1c-1,0.9-2.3,1.7-3.8,2.3C1020,510.3,1018.2,510.6,1016.1,510.6z M1019.2,487
		c-1.4,0-2.7,0.7-4,2.1c-1.3,1.4-2.2,3.1-2.7,5.1l0.1,0.1h10.9l0.1-0.6c0.3-2,0.1-3.6-0.6-4.8C1022.2,487.6,1021,487,1019.2,487z"/>
</g>
</svg>
